<svg width="20" height="20" viewBox="0 0 20 20" fill="none" xmlns="http://www.w3.org/2000/svg">
<path d="M20 10C20 15.5228 15.5228 20 10 20C4.47715 20 0 15.5228 0 10C0 4.47715 4.47715 0 10 0C15.5228 0 20 4.47715 20 10Z" fill="#E26D5A"/>
<path d="M15.121 6.31641C15.4511 6.62109 15.4511 7.1543 15.121 7.45898L8.62101 13.959C8.31632 14.2891 7.78312 14.2891 7.47843 13.959L4.22843 10.709C3.89835 10.4043 3.89835 9.87109 4.22843 9.56641C4.53312 9.23633 5.06632 9.23633 5.37101 9.56641L8.03703 12.2324L13.9784 6.31641C14.2831 5.98633 14.8163 5.98633 15.121 6.31641Z" fill="#F9F9F7"/>
</svg>
