<svg width="30" height="31" viewBox="0 0 30 31" fill="none" xmlns="http://www.w3.org/2000/svg">
<rect x="0.375001" y="30.1255" width="29.2501" height="29.25" rx="14.625" transform="rotate(-90 0.375001 30.1255)" stroke="#E26D5A" stroke-width="0.750002"/>
<path d="M21 9C21.5312 9 22 9.46875 22 10.0312L22 22C22 22.5625 21.5312 23 21 23L8.96875 23C8.4375 23 8 22.5625 8 22L8 10.0312C8 9.46875 8.4375 9 8.96875 9L21 9ZM12.2187 21L12.2187 14.3437L10.1562 14.3437L10.1562 21L12.2187 21ZM11.1875 13.4062C11.8437 13.4062 12.375 12.875 12.375 12.2187C12.375 11.5625 11.8437 11 11.1875 11C10.5 11 9.96875 11.5625 9.96875 12.2187C9.96875 12.875 10.5 13.4062 11.1875 13.4062ZM20 21L20 17.3437C20 15.5625 19.5937 14.1562 17.5 14.1562C16.5 14.1562 15.8125 14.7187 15.5312 15.25L15.5 15.25L15.5 14.3437L13.5312 14.3437L13.5312 21L15.5937 21L15.5937 17.7187C15.5937 16.8437 15.75 16 16.8437 16C17.9062 16 17.9062 17 17.9062 17.75L17.9062 21L20 21Z" fill="#E26D5A"/>
</svg>
