<svg width="40" height="40" viewBox="0 0 40 40" fill="none" xmlns="http://www.w3.org/2000/svg">
<circle cx="20" cy="20" r="20" fill="#4D4D4D"/>
<path d="M13.0313 20C13.0313 19.4375 13.4688 19 14 19H23.5938L20.3125 15.6875C19.9062 15.3125 19.9062 14.6562 20.3125 14.2812C20.5 14.0938 20.75 14 21 14C21.2812 14 21.5312 14.0938 21.7188 14.2812L26.7188 19.2812C27.125 19.6562 27.125 20.3125 26.7188 20.6875L21.7188 25.6875C21.3438 26.0938 20.6875 26.0938 20.3125 25.6875C19.9062 25.3125 19.9062 24.6562 20.3125 24.2812L23.5938 21H14C13.4688 21 13.0313 20.5312 13.0313 20Z" fill="#F9F9F7"/>
</svg>
