<svg width="40" height="40" viewBox="0 0 40 40" fill="none" xmlns="http://www.w3.org/2000/svg">
<circle cx="20" cy="20" r="20" fill="#4D4D4D"/>
<path d="M26.9688 20C26.9688 20.5625 26.5312 21 26 21H16.4062L19.6875 24.3125C20.0938 24.6875 20.0938 25.3438 19.6875 25.7188C19.5 25.9062 19.25 26 19 26C18.7188 26 18.4688 25.9062 18.2812 25.7188L13.2812 20.7188C12.875 20.3438 12.875 19.6875 13.2812 19.3125L18.2812 14.3125C18.6562 13.9062 19.3125 13.9062 19.6875 14.3125C20.0938 14.6875 20.0938 15.3438 19.6875 15.7188L16.4062 19H26C26.5312 19 26.9688 19.4688 26.9688 20Z" fill="#F9F9F7"/>
</svg>
