<svg width="46" height="46" viewBox="0 0 46 46" fill="none" xmlns="http://www.w3.org/2000/svg">
<g clip-path="url(#clip0_19_172)">
<path d="M32.0174 32.0451C31.226 30.6747 29.9489 29.6945 28.4205 29.2849C26.8917 28.8753 25.2956 29.0859 23.9255 29.8769L21.3063 31.3888C20.3345 31.95 19.1143 31.6815 18.4678 30.7638C15.9255 27.1539 13.6959 23.2917 11.8405 19.2849C11.3691 18.2664 11.7464 17.0753 12.7185 16.5141L14.4821 15.496C14.4821 15.4956 14.4821 15.4956 14.4821 15.4956L15.3373 15.0022C16.7078 14.2112 17.688 12.9337 18.0976 11.4053C18.5068 9.87691 18.2969 8.28043 17.5055 6.91031L15.2594 3.01931C13.6261 0.190637 9.99621 -0.782202 7.16718 0.851128C4.23989 2.54096 1.99626 5.22293 0.849349 8.40256C-0.297561 11.5822 -0.28247 15.0787 0.891814 18.2482C3.93211 26.4531 8.30567 34.0284 13.8911 40.7638C16.0487 43.3654 19.0694 45.1269 22.3964 45.7235C23.2341 45.8737 24.0788 45.9477 24.9215 45.9477C27.4252 45.9477 29.905 45.2922 32.0953 44.0277C33.4654 43.2366 34.446 41.9592 34.8552 40.4308C35.2647 38.9024 35.0545 37.3059 34.2635 35.9358L32.0174 32.0451ZM15.271 39.6194C9.81476 33.0401 5.54263 25.6403 2.57287 17.6252C0.441543 11.8728 2.75045 5.47106 8.06351 2.40339C8.71242 2.02892 9.4217 1.85099 10.1222 1.85099C11.5509 1.85099 12.9424 2.59185 13.7068 3.91564L15.9529 7.80629C17.0921 9.77899 16.4137 12.3104 14.441 13.4496L14.362 13.4952L10.9097 7.5157C10.6623 7.08719 10.1141 6.94014 9.68526 7.18756C9.2564 7.43533 9.1097 7.98352 9.35712 8.41203L12.8094 14.3916L11.8219 14.9615C10.0411 15.9894 9.34975 18.172 10.2138 20.038C12.1142 24.142 14.3982 28.098 17.0023 31.796C18.186 33.4767 20.4216 33.9694 22.2027 32.9415L23.1902 32.3712L29.4968 43.2956C24.5196 45.2532 18.7791 43.8494 15.271 39.6194ZM31.199 42.4751C31.1726 42.4905 31.146 42.5049 31.1193 42.52L24.7425 31.4748L24.8218 31.4292C25.7775 30.8775 26.8907 30.7308 27.9565 31.0165C29.0224 31.3022 29.9131 31.9858 30.4648 32.9415L32.7112 36.8321C33.85 38.8048 33.1717 41.3362 31.199 42.4751Z" fill="#E26D5A"/>
<path d="M9.49969 5.3143C9.49969 5.07881 9.40388 4.84753 9.23718 4.68083C9.07048 4.51378 8.8399 4.41797 8.60336 4.41797C8.36787 4.41797 8.1366 4.51378 7.96989 4.68083C7.80319 4.84753 7.70703 5.07881 7.70703 5.3143C7.70703 5.55014 7.80284 5.78142 7.96989 5.94812C8.1366 6.11482 8.36787 6.21063 8.60336 6.21063C8.84025 6.21063 9.07048 6.11482 9.23718 5.94812C9.40388 5.78142 9.49969 5.55014 9.49969 5.3143Z" fill="#E26D5A"/>
<path d="M20.617 23.8998H24.3947C24.8895 23.8998 25.291 23.4983 25.291 23.0031C25.291 22.5082 24.8895 22.1068 24.3947 22.1068H21.5134V21.2859C21.5134 20.8335 21.8815 20.4654 22.3339 20.4654H22.6775C24.1185 20.4654 25.291 19.2928 25.291 17.8518C25.291 16.4105 24.1185 15.2383 22.6775 15.2383H20.617C20.1218 15.2383 19.7207 15.6394 19.7207 16.1346C19.7207 16.6295 20.1218 17.0309 20.617 17.0309H22.6775C23.1302 17.0309 23.4983 17.3991 23.4983 17.8518C23.4983 18.3045 23.1302 18.6727 22.6775 18.6727H22.3339C20.8929 18.6727 19.7207 19.8449 19.7207 21.2859V23.0031C19.7207 23.4983 20.1218 23.8998 20.617 23.8998Z" fill="#E26D5A"/>
<path d="M27.4373 14.9336C26.9422 14.9336 26.541 15.3351 26.541 15.8299V18.4192C26.541 19.569 27.4763 20.5043 28.626 20.5043H30.3187V23.0009C30.3187 23.4958 30.7201 23.8973 31.215 23.8973C31.7098 23.8973 32.1113 23.4958 32.1113 23.0009V15.8299C32.1113 15.3351 31.7098 14.9336 31.215 14.9336C30.7201 14.9336 30.3187 15.3351 30.3187 15.8299V18.7112H28.626C28.4646 18.7112 28.3337 18.5803 28.3337 18.4192V15.8299C28.3337 15.3351 27.9322 14.9336 27.4373 14.9336Z" fill="#E26D5A"/>
<path d="M38.8789 23.0006V21.1117C38.8789 19.576 37.6295 18.3266 36.0937 18.3266C35.7442 18.3266 35.4097 18.3919 35.1013 18.5101V15.8303C35.1013 15.3351 34.6998 14.9336 34.2049 14.9336C33.7101 14.9336 33.3086 15.3351 33.3086 15.8303V23.0009C33.3086 23.4958 33.7101 23.8973 34.2049 23.8973C34.6998 23.8973 35.1013 23.4958 35.1013 23.0009V21.1117C35.1013 20.5646 35.5466 20.1193 36.0937 20.1193C36.6409 20.1193 37.0862 20.5646 37.0862 21.1117V23.0006C37.0862 23.4958 37.4877 23.8973 37.9826 23.8973C38.4778 23.8973 38.8789 23.4958 38.8789 23.0006Z" fill="#E26D5A"/>
<path d="M23.0526 1.84735L23.1607 1.8477H23.1649C23.658 1.8477 24.0591 1.44902 24.0612 0.955581C24.0637 0.460388 23.6639 0.0571442 23.1691 0.0550384L23.0526 0.0546875C22.5577 0.0546875 22.1562 0.455825 22.1562 0.951018C22.1562 1.44586 22.5574 1.84735 23.0526 1.84735Z" fill="#E26D5A"/>
<path d="M40.4801 8.07064C36.9593 3.96451 32.0966 1.22463 26.7874 0.35567C26.2978 0.275653 25.8377 0.606952 25.758 1.09513C25.678 1.58365 26.0093 2.0448 26.4978 2.12447C36.7593 3.80447 44.2072 12.5835 44.2072 22.9994C44.2072 28.6498 42.0067 33.9621 38.0115 37.9573C37.6612 38.3072 37.6612 38.8747 38.0115 39.225C38.1866 39.4001 38.4158 39.4875 38.6453 39.4875C38.8745 39.4875 39.104 39.4001 39.2791 39.225C43.613 34.8911 45.9999 29.1288 45.9999 22.9994C45.9999 17.5239 44.0394 12.2221 40.4801 8.07064Z" fill="#E26D5A"/>
</g>
<defs>
<clipPath id="clip0_19_172">
<rect width="46" height="46" fill="white"/>
</clipPath>
</defs>
</svg>
