<svg width="25" height="25" viewBox="0 0 25 25" fill="none" xmlns="http://www.w3.org/2000/svg">
<path d="M10.4193 18.6667C12.3422 18.6667 14.1099 18.0052 15.5203 16.9083L20.0995 21.4875L21.5724 20.0146L16.9932 15.4354C18.0911 14.024 18.7526 12.2562 18.7526 10.3333C18.7526 5.73854 15.0141 2 10.4193 2C5.82448 2 2.08594 5.73854 2.08594 10.3333C2.08594 14.9281 5.82448 18.6667 10.4193 18.6667ZM10.4193 4.08333C13.8661 4.08333 16.6693 6.88646 16.6693 10.3333C16.6693 13.7802 13.8661 16.5833 10.4193 16.5833C6.9724 16.5833 4.16927 13.7802 4.16927 10.3333C4.16927 6.88646 6.9724 4.08333 10.4193 4.08333Z" fill="#1F1F1F"/>
</svg>
