<svg width="14" height="11" viewBox="0 0 14 11" fill="none" xmlns="http://www.w3.org/2000/svg">
<path d="M13.4062 5.85156L11.1562 10.3516C11.0391 10.6094 10.7812 10.75 10.4766 10.75H1.5C0.65625 10.75 0 10.0938 0 9.25V1.75C0 0.929688 0.65625 0.25 1.5 0.25H4.24219C4.64062 0.25 5.01562 0.414062 5.29688 0.695312L6.44531 1.75H9.75C10.5703 1.75 11.25 2.42969 11.25 3.25V4H10.125V3.25C10.125 3.0625 9.9375 2.875 9.75 2.875H6L4.5 1.49219C4.42969 1.42188 4.33594 1.375 4.24219 1.375H1.5C1.28906 1.375 1.125 1.5625 1.125 1.75V8.5L2.78906 5.17188C2.90625 4.91406 3.16406 4.75 3.44531 4.75H12.75C13.2891 4.75 13.6641 5.33594 13.4062 5.85156Z" fill="#E26D5A"/>
</svg>
