<svg width="64" height="22" viewBox="0 0 64 22" fill="none" xmlns="http://www.w3.org/2000/svg">
<path d="M11.0677 21.9957C17.1428 21.9957 22.0677 17.0794 22.0677 11.0149C22.0677 4.95043 17.1428 0.0341797 11.0677 0.0341797C4.99265 0.0341797 0.0678101 4.95043 0.0678101 11.0149C0.0678101 17.0794 4.99265 21.9957 11.0677 21.9957Z" fill="white"/>
<path d="M6.01467 7.67979L11.322 9.22506C11.4029 9.24984 11.4899 9.24492 11.5674 9.21118C11.645 9.17745 11.7079 9.11712 11.745 9.04104C11.7637 8.99881 11.7733 8.95306 11.773 8.90684C11.7727 8.86063 11.7625 8.81501 11.7432 8.77303C11.7239 8.73105 11.6959 8.69366 11.6611 8.66337C11.6262 8.63309 11.5853 8.61059 11.5411 8.59737L6.31931 6.84791C6.23553 6.81919 6.14407 6.82263 6.06268 6.85756C5.98128 6.89248 5.91572 6.95642 5.87871 7.03697L5.79059 7.2462C5.77384 7.28924 5.76644 7.33535 5.76889 7.38148C5.77133 7.4276 5.78356 7.47268 5.80476 7.5137C5.82596 7.55472 5.85565 7.59075 5.89184 7.61939C5.92803 7.64803 5.96991 7.66862 6.01467 7.67979Z" fill="#2BB673"/>
<path d="M6.45027 6.17247L11.7375 8.02025C11.8057 8.04973 11.8818 8.05532 11.9535 8.0361C12.0252 8.01689 12.0884 7.974 12.1328 7.91437C12.3845 7.55641 12.3166 7.52112 11.8004 7.31693C10.1614 6.66656 8.60796 5.85737 6.84555 5.36076C6.77477 5.34194 6.70018 5.34304 6.62999 5.36394C6.5598 5.38485 6.49674 5.42475 6.44775 5.47924C6.37064 5.55423 6.31277 5.64677 6.27906 5.74897C6.26103 5.78783 6.25117 5.82998 6.2501 5.87281C6.24902 5.91564 6.25675 5.95824 6.27281 5.99795C6.28886 6.03766 6.3129 6.07365 6.34343 6.10367C6.37395 6.13369 6.41032 6.15711 6.45027 6.17247Z" fill="#2BB673"/>
<path d="M8.7565 2.87254L8.47452 3.09438C8.43952 3.12052 8.41191 3.15532 8.39441 3.19537C8.3769 3.23542 8.3701 3.27934 8.37467 3.32282C8.37925 3.3663 8.39503 3.40784 8.42048 3.44336C8.44593 3.47888 8.48017 3.50717 8.51983 3.52544L12.7093 5.67824C12.7438 5.69733 12.7819 5.70922 12.8211 5.71319C12.8604 5.71717 12.9 5.71315 12.9376 5.70137C12.9753 5.68959 13.0101 5.6703 13.0401 5.64466C13.0701 5.61902 13.0946 5.58757 13.1122 5.55219C13.2255 5.30011 13.2758 5.16146 12.7899 4.92702C11.604 4.34975 10.5038 3.6414 9.36327 2.99607C9.27515 2.94565 9.18451 2.89775 9.0838 2.84482C9.03214 2.81824 8.97405 2.80675 8.91618 2.81165C8.8583 2.81655 8.80297 2.83766 8.7565 2.87254Z" fill="#2BB673"/>
<path d="M5.65461 8.64029C5.56146 8.94279 5.67223 9.08899 6.08514 9.17722C7.50765 9.47468 8.92765 9.78979 10.3351 10.1402C10.7606 10.2461 11.0098 10.2057 11.1458 9.8881C11.155 9.86332 11.1587 9.83678 11.1565 9.81041C11.1543 9.78403 11.1463 9.75848 11.1331 9.73557C11.1198 9.71267 11.1017 9.69299 11.0799 9.67795C11.0582 9.66292 11.0334 9.6529 11.0073 9.64862L6.09018 8.34283C6.04853 8.32917 6.00459 8.32395 5.96091 8.32749C5.91723 8.33103 5.87469 8.34325 5.83578 8.36343C5.79687 8.38362 5.76237 8.41136 5.73428 8.44504C5.7062 8.47873 5.68511 8.51768 5.67223 8.55962C5.66972 8.58735 5.66468 8.61256 5.65461 8.64029Z" fill="#2BB673"/>
<path d="M6.34197 10.6268C7.4934 10.7679 8.63813 10.941 9.77614 11.1461C10.0783 11.2015 10.3502 11.2343 10.466 11.0982C10.5818 10.962 10.602 10.6595 10.33 10.6091L6.07509 9.81253C6.03236 9.80101 5.98771 9.79849 5.94396 9.80514C5.90021 9.81178 5.85831 9.82745 5.82092 9.85114C5.78353 9.87484 5.75146 9.90604 5.72673 9.94279C5.70201 9.97954 5.68517 10.021 5.67729 10.0646C5.63449 10.4352 5.85101 10.5663 6.34197 10.6268Z" fill="#2BB673"/>
<path d="M7.3717 4.60453C9.08627 5.43388 10.7026 6.19517 12.3593 6.97915C12.4064 6.99981 12.4586 7.00557 12.509 6.99566C12.5594 6.98575 12.6056 6.96064 12.6413 6.9237C12.951 6.55061 12.8931 6.51784 12.3895 6.24811L7.92056 3.90121C7.87557 3.8775 7.82613 3.86346 7.7754 3.85998C7.72468 3.85651 7.67379 3.86369 7.62599 3.88105C7.54039 3.91928 7.46384 3.9752 7.40136 4.04515C7.33888 4.1151 7.29187 4.19748 7.26344 4.2869C7.24781 4.31449 7.23819 4.34507 7.23523 4.37665C7.23227 4.40822 7.23603 4.44007 7.24626 4.47008C7.25649 4.50009 7.27296 4.5276 7.29458 4.55077C7.31621 4.57395 7.34249 4.59227 7.3717 4.60453Z" fill="#2BB673"/>
<path d="M13.0592 3.85573C12.3417 3.39441 11.6695 2.87764 10.9771 2.38104C10.4307 1.98779 10.3376 1.91972 9.93475 2.20458C9.90151 2.22781 9.87437 2.25874 9.85562 2.29472C9.83688 2.33071 9.82709 2.3707 9.82709 2.41129C9.82709 2.45188 9.83688 2.49187 9.85562 2.52785C9.87437 2.56384 9.90151 2.59476 9.93475 2.618L13.0013 4.58929C13.0337 4.61111 13.0706 4.62511 13.1093 4.6302C13.1479 4.63529 13.1872 4.63132 13.2241 4.61862C13.2609 4.60591 13.2943 4.5848 13.3216 4.55697C13.349 4.52913 13.3695 4.49532 13.3815 4.4582C13.5175 4.10781 13.3538 4.04731 13.0592 3.85573Z" fill="#2BB673"/>
<path d="M7.04697 11.9301C7.69654 12.0032 8.34611 12.1015 8.99568 12.157C9.46398 12.1998 9.8366 12.3788 9.94486 11.8872C9.95189 11.868 9.95441 11.8474 9.95223 11.8271C9.95004 11.8067 9.94321 11.7871 9.93226 11.7698C9.92131 11.7525 9.90654 11.738 9.88908 11.7273C9.87162 11.7166 9.85194 11.7101 9.83157 11.7083C8.67593 11.5394 7.53792 11.2797 6.34704 11.2041C6.24633 11.2041 6.16325 11.31 6.15821 11.3906C6.12296 11.8797 6.3269 11.8494 7.04697 11.9301Z" fill="#2BB673"/>
<path d="M13.4168 20.0875C12.3921 20.7127 11.3749 21.348 10.3502 21.9756C10.6574 21.9983 10.9645 22.0034 11.2767 21.9983C11.4656 21.9983 11.662 21.9857 11.8483 21.9731L13.8801 20.6018C13.9071 20.5832 13.9299 20.5591 13.947 20.5311C13.9641 20.5031 13.9752 20.4718 13.9795 20.4392C13.9837 20.4066 13.9811 20.3735 13.9718 20.3421C13.9625 20.3106 13.9467 20.2814 13.9254 20.2564L13.8322 20.1506C13.7814 20.0929 13.7119 20.055 13.636 20.0435C13.56 20.032 13.4824 20.0476 13.4168 20.0875Z" fill="#2BB673"/>
<path d="M7.51271 15.7087C7.55032 15.6557 7.60694 15.6192 7.67076 15.607C7.73457 15.5948 7.80063 15.6078 7.85512 15.6432C8.30328 15.9533 8.27055 16.0213 8.02129 16.6238C7.9085 16.8846 7.81263 17.1523 7.73427 17.4254C7.63608 17.7884 7.43466 18.1161 7.37676 18.58C7.37412 18.5982 7.37618 18.6169 7.38275 18.6341C7.38932 18.6514 7.40018 18.6666 7.41431 18.6785C7.42843 18.6904 7.44534 18.6984 7.46344 18.7019C7.48154 18.7054 7.50024 18.7042 7.51775 18.6984C8.48204 18.3808 9.53193 17.9422 10.4685 17.6321C10.5001 17.6223 10.5283 17.6039 10.5501 17.579C10.5719 17.554 10.5863 17.5235 10.5918 17.4909C10.5973 17.4582 10.5936 17.4247 10.5811 17.394C10.5687 17.3633 10.548 17.3366 10.5214 17.317C9.86427 16.8129 9.35065 16.4297 8.75899 15.981C7.59832 15.0861 6.50814 14.1256 5.77297 12.8955C4.33787 10.4906 4.42599 8.02523 5.5212 5.55733C6.59123 3.17766 8.36622 1.42316 11.1105 0.608928C11.8391 0.402778 12.5879 0.276832 13.3438 0.233324C10.696 -0.321318 7.93695 0.120804 5.59433 1.47512C3.25171 2.82944 1.48996 5.0009 0.64604 7.57416C-0.197877 10.1474 -0.064722 12.9419 1.02004 15.423C2.10479 17.9041 4.06501 19.8978 6.52577 21.0227C6.3256 20.1159 6.30983 19.1781 6.4794 18.2652C6.64896 17.3522 7.00038 16.4828 7.51271 15.7087Z" fill="#2BB673"/>
<path d="M13.0567 19.5227C12.805 19.1874 12.7269 19.3235 11.9993 19.6689C10.9922 20.1478 10.0053 20.6419 9.02587 21.1637C8.61548 21.3805 8.3335 21.5091 8.16229 21.615C8.60445 21.7339 9.05344 21.8256 9.50676 21.8897L12.9611 19.9537C12.9975 19.9335 13.0293 19.9057 13.0542 19.8723C13.0792 19.8389 13.0968 19.8005 13.1058 19.7598C13.1149 19.719 13.1152 19.6768 13.1067 19.6359C13.0982 19.5951 13.0812 19.5565 13.0567 19.5227Z" fill="#2BB673"/>
<path d="M11.3094 18.8017C10.2621 19.3285 9.17188 19.81 8.10185 20.3016C7.41955 20.6217 7.32639 20.6797 7.59831 21.1183C7.64641 21.1815 7.71567 21.2252 7.79336 21.2414C7.87105 21.2576 7.95197 21.2453 8.02128 21.2066L12.0748 19.1344C12.1178 19.1182 12.155 19.0896 12.1819 19.0523C12.2088 19.015 12.2241 18.9707 12.226 18.9247C12.2278 18.8788 12.2162 18.8333 12.1924 18.7939C12.1687 18.7546 12.1339 18.7231 12.0924 18.7034C11.881 18.595 11.6292 18.6403 11.3094 18.8017Z" fill="#2BB673"/>
<path d="M8.01878 18.9758C7.40194 19.2278 7.30626 19.2909 7.49006 19.7799C7.50304 19.8079 7.52144 19.8331 7.54418 19.854C7.56693 19.8749 7.59358 19.8911 7.62259 19.9016C7.65161 19.9122 7.68241 19.9169 7.71325 19.9155C7.74408 19.914 7.77433 19.9065 7.80225 19.8933L11.3271 18.3582C11.3598 18.3479 11.3891 18.3287 11.4117 18.3028C11.4343 18.2769 11.4493 18.2452 11.455 18.2113C11.4607 18.1774 11.457 18.1425 11.4442 18.1106C11.4314 18.0787 11.41 18.051 11.3825 18.0304C11.1131 17.8313 10.821 17.8489 10.4484 18.0128C9.65026 18.3582 8.82948 18.6581 8.01878 18.9758Z" fill="#2BB673"/>
<path d="M14.293 20.7705L12.9258 21.8418C13.6501 21.724 14.3599 21.5296 15.0432 21.262C15.1112 21.2343 15.1163 21.1032 15.0659 21.0503L14.8443 20.8184C14.7774 20.7391 14.6818 20.6896 14.5785 20.6807C14.4752 20.6717 14.3726 20.704 14.293 20.7705Z" fill="#2BB673"/>
<path d="M10.8865 16.4626C12.7273 17.6606 14.3573 19.1555 15.7104 20.8866C15.7251 20.9049 15.7454 20.9178 15.7682 20.9233C15.791 20.9288 15.815 20.9265 15.8363 20.9169C17.71 20.0144 19.2899 18.5988 20.3928 16.834C21.4957 15.0693 22.0764 13.0277 22.0677 10.9459C22.059 8.86416 21.4612 6.82751 20.3436 5.07204C19.226 3.31658 17.6344 1.91421 15.7532 1.02749C15.5936 0.958437 15.4233 0.917502 15.2497 0.906489C14.2256 0.893125 13.2043 1.01776 12.2133 1.27705C11.8608 1.36024 11.5184 1.48124 11.1307 1.61232C10.9922 1.66022 10.9746 1.76862 11.0929 1.86441C11.9011 2.46941 12.5834 2.96097 13.3589 3.55085C13.3829 3.57647 13.4141 3.59431 13.4483 3.60209C13.4826 3.60986 13.5184 3.60721 13.5511 3.59448C13.5839 3.58175 13.6121 3.55951 13.6321 3.53063C13.6521 3.50174 13.6631 3.46753 13.6635 3.43237C13.7743 2.83493 13.8952 2.23497 13.9833 1.63249C14.0211 1.38041 14.1343 1.29722 14.4264 1.30478L14.5901 1.31739C14.6568 1.31739 14.7209 1.34394 14.7681 1.39122C14.8153 1.43849 14.8418 1.50261 14.8418 1.56947C14.6429 6.51787 12.742 10.8361 9.16185 14.5568C9.12003 14.5975 9.06404 14.6202 9.00575 14.6202C8.94746 14.6202 8.89147 14.5975 8.84965 14.5568L8.55256 14.282C8.52555 14.2558 8.50889 14.2208 8.50565 14.1832C8.50241 14.1457 8.51281 14.1083 8.53493 14.0779C8.87231 13.6266 9.23234 13.3771 9.58734 12.8855C9.59844 12.8701 9.60509 12.852 9.60656 12.833C9.60804 12.8141 9.60428 12.7951 9.59569 12.7782C9.58711 12.7613 9.57404 12.7471 9.55791 12.7371C9.54178 12.7271 9.52322 12.7218 9.50426 12.7216C8.66082 12.7065 7.57568 12.5149 6.70455 12.4847C6.68215 12.4836 6.6599 12.4889 6.64039 12.5C6.62088 12.5111 6.60492 12.5275 6.59437 12.5473C6.58381 12.5671 6.5791 12.5895 6.58078 12.6119C6.58245 12.6343 6.59045 12.6557 6.60384 12.6738C6.85083 12.9878 7.12829 13.2766 7.43217 13.5359C8.48319 14.6244 9.6404 15.6048 10.8865 16.4626Z" fill="#2BB673"/>
<path d="M32.8592 12.2799C32.7858 12.022 32.6839 11.773 32.5556 11.5374C32.4468 11.3329 32.315 11.1413 32.1629 10.9665L31.7834 10.5045C31.674 10.3764 31.5737 10.2407 31.4831 10.0986C31.4052 9.97763 31.3639 9.83667 31.3643 9.69274C31.3693 9.54655 31.3914 9.40145 31.4303 9.26044C31.4841 9.06586 31.5724 8.88255 31.691 8.71924C31.6993 8.70615 31.7049 8.69158 31.7075 8.67634C31.7075 8.61694 31.6481 8.56744 31.5326 8.52784C31.3824 8.47938 31.225 8.45706 31.0673 8.46183C30.9105 8.45481 30.7538 8.4772 30.6053 8.52784C30.5128 8.56277 30.4294 8.61803 30.3611 8.68954C30.2721 8.78776 30.1986 8.89905 30.1433 9.01954C30.0985 9.11782 30.061 9.2193 30.0311 9.32313C30.0066 9.41253 29.9922 9.50441 29.9882 9.59704C29.9882 9.67954 29.9882 9.74884 29.9882 9.80494C29.9853 10.0088 30.0247 10.211 30.1037 10.3989C30.1828 10.5734 30.2778 10.7402 30.3875 10.8972C30.503 11.0556 30.6251 11.2272 30.7637 11.3757C30.9027 11.5381 31.0286 11.7114 31.1399 11.8938C31.2581 12.0902 31.3533 12.2995 31.4237 12.5175C31.5042 12.776 31.5432 13.0455 31.5392 13.3161C31.5443 13.569 31.4913 13.8197 31.3841 14.0487C31.2876 14.256 31.1441 14.4379 30.965 14.58C30.7771 14.7318 30.5605 14.8441 30.3281 14.91C30.0673 14.9837 29.7972 15.0193 29.5262 15.0156C29.2572 15.0193 28.9891 14.9826 28.7309 14.9067C28.4917 14.8404 28.2675 14.7284 28.0709 14.5767C27.8904 14.4309 27.744 14.2473 27.6419 14.0388C27.5306 13.8168 27.4751 13.571 27.4802 13.3227V6.06274C27.4794 6.02043 27.4619 5.98014 27.4317 5.95052C27.4015 5.92091 27.3608 5.90432 27.3185 5.90433H26.2229C26.203 5.9039 26.1832 5.90739 26.1646 5.91462C26.146 5.92185 26.129 5.93266 26.1146 5.94645C26.1002 5.96025 26.0886 5.97674 26.0806 5.99499C26.0726 6.01324 26.0682 6.0329 26.0678 6.05284V13.392C26.0693 13.5876 26.0926 13.7824 26.1371 13.9728C26.2358 14.4153 26.4511 14.8232 26.7608 15.1542C26.9393 15.3506 27.1503 15.5147 27.3845 15.6393C27.6589 15.7877 27.9519 15.8987 28.2557 15.9693C28.6363 16.0586 29.0264 16.1007 29.4173 16.0947C29.9212 16.1014 30.4229 16.0256 30.9023 15.8703C31.3088 15.7395 31.6872 15.5336 32.0177 15.2631C32.3154 15.0147 32.5563 14.7052 32.7239 14.3556C32.89 14.011 32.9747 13.6327 32.9714 13.2501C32.9764 12.9232 32.9386 12.5971 32.8592 12.2799Z" fill="white"/>
<path d="M42.3947 10.9521C42.3942 11.4358 42.3589 11.9188 42.2891 12.3975C42.2223 12.8856 42.1265 13.3694 42.002 13.8462C41.8953 14.2757 41.7609 14.6979 41.5994 15.1101C41.4908 15.4101 41.3444 15.6951 41.1638 15.9582C41.1638 15.9582 41.1407 15.9945 41.0219 16.0176C40.8529 16.0456 40.6816 16.0578 40.5104 16.0539C40.3289 16.0539 40.1804 16.0539 40.0748 16.0539C39.9945 16.0478 39.915 16.0345 39.8372 16.0143L39.791 15.9945C39.835 15.8672 39.8914 15.7445 39.9593 15.6282C40.1198 15.3082 40.2577 14.9774 40.3718 14.6382C40.5412 14.1436 40.679 13.6388 40.7843 13.1268C40.918 12.4431 40.9811 11.7476 40.9724 11.0511C40.9768 10.5278 40.9326 10.0052 40.8404 9.49015C40.7657 9.05042 40.6173 8.62645 40.4015 8.23615C40.2068 7.8923 39.9288 7.60292 39.593 7.39465C39.2273 7.18038 38.8089 7.07292 38.3852 7.08445C37.9703 7.07574 37.5602 7.17345 37.1939 7.36825C36.8528 7.55967 36.5647 7.83299 36.3557 8.16355C36.121 8.53766 35.9567 8.95143 35.8706 9.38455C35.7616 9.8931 35.7096 10.4122 35.7155 10.9323C35.7079 11.6309 35.7709 12.3286 35.9036 13.0146C36.0113 13.539 36.1491 14.0568 36.3161 14.5656C36.4308 14.9164 36.5686 15.2592 36.7286 15.5919C36.7955 15.7148 36.8529 15.8428 36.9002 15.9747C36.8855 15.9866 36.8687 15.9956 36.8507 16.0011C36.7739 16.0211 36.6955 16.0343 36.6164 16.0407C36.5042 16.0407 36.3623 16.0407 36.1808 16.0407C36.0095 16.0449 35.8382 16.0327 35.6693 16.0044C35.5505 15.9813 35.5241 15.9483 35.5208 15.9417C35.3398 15.6901 35.1922 15.4161 35.0819 15.1266C34.9243 14.7362 34.792 14.336 34.6859 13.9287C34.561 13.4709 34.4651 13.0058 34.3988 12.5361C34.3299 12.0673 34.2946 11.5942 34.2932 11.1204C34.2789 10.3393 34.3823 9.56057 34.6001 8.81035C34.7724 8.22063 35.0657 7.6733 35.4614 7.20325C35.8212 6.78944 36.2734 6.46613 36.7814 6.25945C37.3336 6.04533 37.9217 5.93892 38.5139 5.94595C39.078 5.93625 39.6385 6.03715 40.1639 6.24295C40.6344 6.43938 41.0484 6.75018 41.3684 7.14715C41.7248 7.60635 41.9821 8.13447 42.1241 8.69815C42.3144 9.43402 42.4054 10.192 42.3947 10.9521Z" fill="white"/>
<path d="M54.5232 9.00997C54.5323 9.47258 54.4539 9.93276 54.2922 10.3663C54.1568 10.7369 53.9401 11.0724 53.658 11.3483C53.3759 11.6241 53.0355 11.8332 52.662 11.9602C52.2552 12.0987 51.8278 12.1668 51.3981 12.1615C50.9948 12.1664 50.5938 12.1005 50.2134 11.9668C49.8566 11.8429 49.5311 11.6425 49.2598 11.3797C48.9885 11.117 48.7778 10.7981 48.6426 10.4455C48.4829 10.0242 48.4067 9.57586 48.4182 9.12547C48.4127 8.68498 48.4807 8.24666 48.6195 7.82857C48.4494 7.57266 48.2238 7.35835 47.9595 7.20157C47.6937 7.06313 47.4007 6.98486 47.1013 6.97231C46.8019 6.95977 46.5034 7.01325 46.227 7.12897C45.9859 7.23679 45.776 7.40363 45.6165 7.61407C45.4336 7.86328 45.2982 8.14407 45.2172 8.44237C45.1151 8.83214 45.0673 9.23414 45.0753 9.63697C45.0624 10.2046 45.1751 10.768 45.4053 11.287C45.611 11.73 45.9092 12.1238 46.2798 12.442C46.6604 12.7642 47.0935 13.0187 47.5602 13.1944C48.0602 13.3866 48.5758 13.5357 49.1013 13.6399C49.6766 13.7526 50.2442 13.9014 50.8008 14.0854C51.2108 14.2199 51.6093 14.3877 51.9921 14.587C52.2716 14.7316 52.5331 14.9088 52.7709 15.115C52.9501 15.2735 53.1057 15.4568 53.2329 15.6595C53.2602 15.6965 53.2814 15.7378 53.2956 15.7816C53.307 15.817 53.3148 15.8535 53.3187 15.8905C53.3187 15.9598 53.2461 16.0093 53.1042 16.0291C52.9195 16.0555 52.733 16.0676 52.5465 16.0654C52.4421 16.0713 52.3374 16.0713 52.233 16.0654C52.1626 16.0604 52.093 16.0482 52.0251 16.0291C51.979 16.0139 51.9356 15.9916 51.8964 15.9631C51.8669 15.9397 51.8413 15.9119 51.8205 15.8806C51.6838 15.7105 51.5129 15.5711 51.3189 15.4714C51.0779 15.3379 50.8249 15.2274 50.5632 15.1414C50.2867 15.0485 50.0045 14.9735 49.7184 14.917C49.4694 14.8671 49.2165 14.8395 48.9627 14.8345C48.7284 14.8345 48.4743 14.8345 48.2004 14.851C47.9265 14.8675 47.6394 14.884 47.3424 14.9236C47.03 14.9614 46.7203 15.0188 46.4151 15.0952C46.0871 15.1807 45.766 15.291 45.4548 15.4252H45.4152C45.3591 15.4252 45.3129 15.3823 45.2766 15.2899C45.2335 15.1614 45.2145 15.026 45.2205 14.8906C45.2108 14.7461 45.231 14.6012 45.2799 14.4649C45.3156 14.3931 45.3751 14.336 45.4482 14.3032C45.6987 14.1983 45.9583 14.1166 46.2237 14.059C46.5029 13.9981 46.7865 13.9595 47.0718 13.9435C46.5714 13.83 46.0916 13.6396 45.6495 13.3792C45.247 13.1395 44.8914 12.8287 44.6001 12.4618C44.3081 12.0931 44.0845 11.6751 43.9401 11.2276C43.7873 10.7407 43.7116 10.233 43.7157 9.72277C43.7129 9.23315 43.7728 8.74519 43.8939 8.27077C44 7.83515 44.1931 7.42546 44.4615 7.06627C44.7352 6.71167 45.0908 6.42861 45.4977 6.24127C45.991 6.02435 46.5266 5.92061 47.0652 5.93767C47.4975 5.9253 47.9267 6.01342 48.3192 6.19507C48.6486 6.35513 48.9425 6.57955 49.1838 6.85507C49.4555 6.55276 49.7947 6.31874 50.1738 6.17197C50.6089 6.00246 51.0732 5.92059 51.54 5.93107C51.9592 5.92553 52.3763 5.99023 52.7742 6.12247C53.1271 6.24234 53.4493 6.43837 53.718 6.69667C53.9866 6.96848 54.1918 7.29644 54.3186 7.65697C54.4673 8.09208 54.5366 8.55036 54.5232 9.00997ZM53.2197 9.08587C53.2241 8.78286 53.1806 8.48105 53.091 8.19157C53.0133 7.95037 52.8901 7.72632 52.728 7.53157C52.5755 7.35173 52.3852 7.20764 52.1708 7.10955C51.9564 7.01146 51.723 6.96176 51.4872 6.96397C51.2421 6.96031 50.9987 7.00516 50.7711 7.09597C50.5576 7.18246 50.3668 7.31681 50.2134 7.48867C50.0456 7.68005 49.9207 7.90508 49.8471 8.14867C49.7523 8.4462 49.7066 8.75716 49.7118 9.06937C49.6745 9.62057 49.8271 10.1679 50.1441 10.6204C50.3158 10.8097 50.5293 10.9566 50.7675 11.0494C51.0057 11.1422 51.2623 11.1783 51.5169 11.155C51.7423 11.156 51.966 11.1157 52.1769 11.0362C52.3839 10.9557 52.5692 10.828 52.7181 10.6633C52.883 10.4774 53.0077 10.2594 53.0844 10.0231C53.1836 9.72068 53.2326 9.4041 53.2296 9.08587H53.2197Z" fill="white"/>
<path d="M56.7695 11.4582C56.6361 11.4566 56.5027 11.4632 56.3702 11.478C56.2995 11.4839 56.2303 11.5018 56.1656 11.5308C56.1128 11.5572 56.093 11.577 56.0897 11.5869C56.0643 11.6228 56.0433 11.6616 56.027 11.7024C56.027 11.7288 55.9874 11.8278 55.9214 12.105C55.8657 12.3831 55.8402 12.6663 55.8455 12.9498C55.8455 13.3554 55.9136 13.7581 56.0468 14.1411C56.1799 14.5174 56.4004 14.8567 56.6903 15.1311C57.0306 15.4456 57.4347 15.6831 57.875 15.8274C58.4669 16.0201 59.0874 16.1105 59.7098 16.0947C60.2829 16.0988 60.8534 16.0176 61.4027 15.8538C61.8865 15.7068 62.3356 15.4632 62.7227 15.1377C63.101 14.8116 63.401 14.4044 63.6005 13.9464C63.8274 13.4183 63.9399 12.8481 63.9305 12.2733C63.9457 11.7182 63.8608 11.1648 63.6797 10.6398C63.5287 10.2416 63.316 9.86966 63.0494 9.53763C62.8076 9.24974 62.5304 8.9936 62.2244 8.77533C61.8944 8.55753 61.6205 8.34633 61.3598 8.14833C61.1032 7.9516 60.8726 7.72318 60.6734 7.46852C60.4703 7.19413 60.3657 6.85931 60.3764 6.51813V6.07593C60.3764 6.04953 60.3764 6.01322 60.2873 5.97362C60.0791 5.91589 59.8627 5.89358 59.6471 5.90762C59.4182 5.89283 59.1884 5.91625 58.9673 5.97693C58.8617 6.01653 58.8617 6.05613 58.8617 6.07593V6.45213C58.8445 6.92679 58.9301 7.39956 59.1125 7.83813C59.2644 8.17242 59.477 8.47565 59.7395 8.73242C59.9952 8.98093 60.2761 9.20213 60.5777 9.39242C60.8931 9.58641 61.1912 9.80722 61.4687 10.0524C61.7548 10.3115 61.9918 10.62 62.1683 10.9632C62.3723 11.3971 62.4696 11.8734 62.4521 12.3525C62.456 12.7053 62.4025 13.0564 62.2937 13.392C62.1913 13.7018 62.0211 13.9848 61.7954 14.2203C61.562 14.4573 61.2791 14.6398 60.9671 14.7549C60.5989 14.887 60.2097 14.9508 59.8187 14.943C59.1556 14.986 58.499 14.7906 57.9674 14.3919C57.7438 14.1908 57.5683 13.9419 57.4541 13.6637C57.3398 13.3854 57.2897 13.0851 57.3074 12.7848C57.2991 12.5027 57.3347 12.2211 57.413 11.9499C57.4585 11.838 57.4885 11.7203 57.5021 11.6001C57.5021 11.5737 57.4724 11.5506 57.413 11.5275C57.2037 11.4693 56.9863 11.4459 56.7695 11.4582Z" fill="white"/>
</svg>
