<svg width="80" height="80" viewBox="0 0 80 80" fill="none" xmlns="http://www.w3.org/2000/svg">
<circle opacity="0.2" cx="40" cy="40" r="40" fill="#F9F9F7"/>
<g clip-path="url(#clip0_19_87)">
<path d="M36.6879 51.7499C36.1702 51.7499 35.7503 51.3311 35.7503 50.8127C35.7503 49.2619 37.0119 48.0002 38.5628 48.0002H47.0002C48.0343 48.0002 48.8751 47.1591 48.8751 46.125C48.8751 45.0909 48.0343 44.2501 47.0002 44.2501H38.5628C38.4626 44.2501 38.3623 44.2333 38.2665 44.2013L35.5985 43.3125H31.0629C29.5213 43.3125 28.0554 43.8958 27.0382 44.913L26.1005 45.8503C26.0136 45.9375 25.9103 46.0066 25.7966 46.0538C25.6828 46.101 25.5609 46.1253 25.4378 46.1253C25.3146 46.1253 25.1927 46.101 25.079 46.0538C24.9653 46.0066 24.862 45.9375 24.775 45.8503C24.6878 45.7634 24.6187 45.6601 24.5715 45.5463C24.5243 45.4326 24.5 45.3107 24.5 45.1875C24.5 45.0644 24.5243 44.9425 24.5715 44.8288C24.6187 44.715 24.6878 44.6117 24.775 44.5248L25.7126 43.5872C27.0783 42.2213 29.0283 41.4376 31.0629 41.4376H35.7503C35.8505 41.4376 35.9507 41.4544 36.0465 41.4864L38.7144 42.3752H47.0002C49.0683 42.3752 50.7503 44.0568 50.7503 46.125C50.7503 48.1931 49.0683 49.8751 47.0002 49.8751H38.5628C38.046 49.8751 37.6251 50.2949 37.6251 50.8127C37.6251 51.3311 37.2053 51.7499 36.6879 51.7499Z" fill="#F9F9F7"/>
<path d="M31.7255 57.1002L30.3999 55.7747L32.2748 53.8998C32.3617 53.8126 32.4651 53.7434 32.5788 53.6963C32.6926 53.6492 32.8146 53.625 32.9377 53.6251H45.7281L55.6625 45.4971L59.8177 38.8493C59.5983 38.7209 59.3676 38.6251 59.1877 38.6251C58.3569 38.6251 57.7008 38.6251 56.1006 40.2253L54.2253 42.1006C54.1711 42.1548 54.1111 42.2015 54.0454 42.241L49.3581 45.0535L48.3933 43.4457L52.9821 40.6922L54.7757 38.8987C56.7659 36.9085 57.905 36.7502 59.1877 36.7502C60.4765 36.7502 61.6016 37.8386 61.7255 37.9622C61.8753 38.1121 61.97 38.3084 61.994 38.5189C62.018 38.7295 61.97 38.9421 61.8577 39.1219L57.17 46.6221C57.1157 46.7087 57.0476 46.786 56.9685 46.8508L46.6561 55.2882C46.4885 55.425 46.2789 55.4998 46.0625 55.5H33.326L31.7255 57.1002Z" fill="#F9F9F7"/>
<path d="M29.1876 62.9999C29.0645 63 28.9426 62.9759 28.8288 62.9287C28.7151 62.8816 28.6118 62.8124 28.5249 62.7252C28.4378 62.6382 28.3686 62.5349 28.3214 62.4212C28.2742 62.3075 28.2499 62.1856 28.2499 62.0624C28.2499 61.9393 28.2742 61.8174 28.3214 61.7036C28.3686 61.5899 28.4378 61.4866 28.5249 61.3996L31.6122 58.3125L21.6878 48.3881L18.6005 51.4753C18.5136 51.5624 18.4103 51.6316 18.2966 51.6788C18.1828 51.726 18.0609 51.7503 17.9378 51.7503C17.8146 51.7503 17.6927 51.726 17.579 51.6788C17.4653 51.6316 17.362 51.5624 17.275 51.4753C17.1878 51.3883 17.1187 51.285 17.0715 51.1713C17.0243 51.0575 17 50.9356 17 50.8125C17 50.6894 17.0243 50.5674 17.0715 50.4537C17.1187 50.34 17.1878 50.2367 17.275 50.1497L21.0247 46.3996C21.1118 46.3125 21.2151 46.2434 21.3289 46.1963C21.4426 46.1491 21.5646 46.1249 21.6877 46.1249C21.8108 46.1249 21.9327 46.1491 22.0465 46.1963C22.1603 46.2434 22.2636 46.3125 22.3506 46.3996L33.6006 57.6495C33.6877 57.7366 33.7568 57.8399 33.8039 57.9537C33.851 58.0674 33.8753 58.1894 33.8753 58.3125C33.8753 58.4356 33.851 58.5576 33.8039 58.6713C33.7568 58.7851 33.6877 58.8884 33.6006 58.9755L29.8505 62.7252C29.7635 62.8124 29.6602 62.8815 29.5464 62.9287C29.4326 62.9758 29.3108 63 29.1876 62.9999ZM50.7492 39.5627C50.5889 39.5627 50.4268 39.5222 50.2785 39.435C49.8305 39.1744 49.6794 38.5997 49.94 38.1527C51.0829 36.1903 51.6875 34.0847 51.6875 32.0625C51.6875 25.3427 46.2201 19.8753 39.5003 19.8753C32.7801 19.8753 27.3127 25.3427 27.3127 32.0625C27.3127 34.0847 27.9173 36.1903 29.0603 38.1533C29.3209 38.6007 29.1691 39.1744 28.7217 39.4361C28.2737 39.6956 27.701 39.5459 27.4394 39.0975C26.1307 36.8484 25.4379 34.4156 25.4379 32.0625C25.4379 24.3086 31.746 18.0001 39.5003 18.0001C47.2542 18.0001 53.5627 24.3086 53.5627 32.0625C53.5627 34.4156 52.8706 36.8484 51.5601 39.0968C51.3867 39.3959 51.0716 39.5627 50.7492 39.5627Z" fill="#F9F9F7"/>
<path d="M41.3751 38.6251H37.625C36.0746 38.6251 34.8125 37.3634 34.8125 35.8126C34.8125 35.2952 35.2327 34.875 35.7501 34.875C36.2675 34.875 36.6877 35.2952 36.6877 35.8126C36.6877 36.3293 37.1086 36.7502 37.625 36.7502H41.3751C41.8925 36.7502 42.3127 36.3292 42.3127 35.8126V33.9378C42.3127 33.4211 41.8925 33.0001 41.3751 33.0001H37.625C36.0746 33.0001 34.8125 31.7384 34.8125 30.1877V28.3128C34.8125 26.762 36.0746 25.5003 37.625 25.5003H41.3751C42.9258 25.5003 44.1876 26.762 44.1876 28.3128C44.1876 28.8302 43.7683 29.25 43.25 29.25C42.7316 29.25 42.3127 28.8302 42.3127 28.3128C42.3127 27.7961 41.8925 27.3752 41.3751 27.3752H37.625C37.1086 27.3752 36.6877 27.7961 36.6877 28.3128V30.1877C36.6877 30.7044 37.1086 31.1253 37.625 31.1253H41.3751C42.9258 31.1253 44.1876 32.3869 44.1876 33.9378V35.8126C44.1876 37.3634 42.9258 38.6251 41.3751 38.6251Z" fill="#F9F9F7"/>
<path d="M39.5003 40.5C38.9826 40.5 38.5627 40.0801 38.5627 39.5627V24.5627C38.5627 24.0453 38.9825 23.6251 39.5003 23.6251C40.0177 23.6251 40.4376 24.0453 40.4376 24.5627V39.5627C40.4376 40.0801 40.0177 40.5 39.5003 40.5ZM47.0001 31.1253H48.875V33.0001H47.0001V31.1253ZM30.1252 31.1253H32.0001V33.0001H30.1252V31.1253Z" fill="#F9F9F7"/>
</g>
<defs>
<clipPath id="clip0_19_87">
<rect width="45" height="44.9997" fill="white" transform="translate(17 18)"/>
</clipPath>
</defs>
</svg>
