<svg id="Layer_1" data-name="Layer 1" xmlns="http://www.w3.org/2000/svg" viewBox="0 0 316.66 315"><defs><style>.cls-1{fill:#3b50a3;}.cls-2{fill:#2bb673;}</style></defs><path class="cls-1" d="M153.26,163a11,11,0,0,0-.92-2.25,9.26,9.26,0,0,0-1.19-1.73L150,157.62a11,11,0,0,1-.91-1.23,2.26,2.26,0,0,1-.36-1.23,5.65,5.65,0,0,1,.2-1.31,5.1,5.1,0,0,1,.79-1.64.36.36,0,0,0,.05-.13c0-.18-.18-.33-.53-.45a4.18,4.18,0,0,0-1.41-.2,3.81,3.81,0,0,0-1.4.2,2,2,0,0,0-.74.49,3.93,3.93,0,0,0-.66,1,6.62,6.62,0,0,0-.34.92,3.74,3.74,0,0,0-.13.83c0,.25,0,.46,0,.63a4.48,4.48,0,0,0,.35,1.8,9.45,9.45,0,0,0,.86,1.51c.35.48.72,1,1.14,1.45a12.13,12.13,0,0,1,1.14,1.57,9.07,9.07,0,0,1,.86,1.89,7.76,7.76,0,0,1,.35,2.42,5,5,0,0,1-.47,2.22,4.46,4.46,0,0,1-1.27,1.61,5.43,5.43,0,0,1-1.93,1,8.51,8.51,0,0,1-2.43.32,8.16,8.16,0,0,1-2.41-.33,5.82,5.82,0,0,1-2-1,4.82,4.82,0,0,1-1.3-1.63,4.63,4.63,0,0,1-.49-2.17v-22a.49.49,0,0,0-.49-.48h-3.32a.46.46,0,0,0-.47.45v22.24a8,8,0,0,0,.21,1.76,7.69,7.69,0,0,0,1.89,3.58,7,7,0,0,0,1.89,1.47,10.6,10.6,0,0,0,2.64,1,14.44,14.44,0,0,0,3.52.38,14,14,0,0,0,4.5-.68,10.34,10.34,0,0,0,3.38-1.84,8.2,8.2,0,0,0,2.14-2.75,7.57,7.57,0,0,0,.75-3.35A11.39,11.39,0,0,0,153.26,163Z"/><path class="cls-1" d="M182.39,163.33a30.54,30.54,0,0,0,.32-4.38,25.82,25.82,0,0,0-.79-6.8,12.74,12.74,0,0,0-2.29-4.7,9.28,9.28,0,0,0-3.65-2.74,13.09,13.09,0,0,0-5-.9,14.06,14.06,0,0,0-5.25.95,10.59,10.59,0,0,0-4,2.86,13.4,13.4,0,0,0-2.61,4.87,23.57,23.57,0,0,0-.93,7,30.13,30.13,0,0,0,.32,4.29,34.23,34.23,0,0,0,.87,4.22,29.7,29.7,0,0,0,1.2,3.63,10.83,10.83,0,0,0,1.33,2.47s.09.12.45.19a8.14,8.14,0,0,0,1.55.11c.55,0,1,0,1.32,0a4.11,4.11,0,0,0,.71-.12.44.44,0,0,0,.15-.08,8.24,8.24,0,0,0-.52-1.16,25.38,25.38,0,0,1-1.25-3.11,42.5,42.5,0,0,1-1.25-4.7,31.44,31.44,0,0,1-.57-6.31,21.23,21.23,0,0,1,.47-4.69,11,11,0,0,1,1.47-3.7,7.14,7.14,0,0,1,2.54-2.41,7.36,7.36,0,0,1,3.61-.86,6.87,6.87,0,0,1,3.66.94,7.14,7.14,0,0,1,2.45,2.55,12,12,0,0,1,1.33,3.8,25.6,25.6,0,0,1,.4,4.73,30.75,30.75,0,0,1-.57,6.29,37.35,37.35,0,0,1-1.25,4.58,23.11,23.11,0,0,1-1.25,3,6.28,6.28,0,0,0-.51,1.11l.14.06a4.08,4.08,0,0,0,.72.12c.33,0,.77,0,1.32,0a8.29,8.29,0,0,0,1.55-.11c.36-.07.43-.17.43-.18a11.37,11.37,0,0,0,1.32-2.57,30.9,30.9,0,0,0,1.22-3.83A37.47,37.47,0,0,0,182.39,163.33Z"/><path class="cls-1" d="M182.71,159a30.54,30.54,0,0,1-.32,4.38,37.47,37.47,0,0,1-.87,4.39,30.9,30.9,0,0,1-1.22,3.83,11.37,11.37,0,0,1-1.32,2.57s-.07.11-.43.18a8.29,8.29,0,0,1-1.55.11c-.55,0-1,0-1.32,0a4.08,4.08,0,0,1-.72-.12l-.14-.06a6.28,6.28,0,0,1,.51-1.11,23.11,23.11,0,0,0,1.25-3,37.35,37.35,0,0,0,1.25-4.58,30.75,30.75,0,0,0,.57-6.29,25.6,25.6,0,0,0-.4-4.73,12,12,0,0,0-1.33-3.8,7.14,7.14,0,0,0-2.45-2.55,6.87,6.87,0,0,0-3.66-.94,7.36,7.36,0,0,0-3.61.86,7.14,7.14,0,0,0-2.54,2.41,11,11,0,0,0-1.47,3.7,21.23,21.23,0,0,0-.47,4.69,31.44,31.44,0,0,0,.57,6.31,42.5,42.5,0,0,0,1.25,4.7,25.38,25.38,0,0,0,1.25,3.11,8.24,8.24,0,0,1,.52,1.16.44.44,0,0,1-.15.08,4.11,4.11,0,0,1-.71.12c-.34,0-.77,0-1.32,0a8.14,8.14,0,0,1-1.55-.11c-.36-.07-.44-.17-.45-.19a10.83,10.83,0,0,1-1.33-2.47,29.7,29.7,0,0,1-1.2-3.63,34.23,34.23,0,0,1-.87-4.22,30.13,30.13,0,0,1-.32-4.29,23.57,23.57,0,0,1,.93-7,13.4,13.4,0,0,1,2.61-4.87,10.59,10.59,0,0,1,4-2.86,14.06,14.06,0,0,1,5.25-.95,13.09,13.09,0,0,1,5,.9,9.28,9.28,0,0,1,3.65,2.74,12.74,12.74,0,0,1,2.29,4.7A25.82,25.82,0,0,1,182.71,159Z"/><path class="cls-1" d="M219.92,153.09a11.13,11.13,0,0,1-.7,4.11,8,8,0,0,1-4.94,4.83,11.44,11.44,0,0,1-3.83.61,10.44,10.44,0,0,1-3.59-.59,7.86,7.86,0,0,1-4.76-4.61,10.53,10.53,0,0,1-.68-4,12,12,0,0,1,.61-3.93,6.2,6.2,0,0,0-2-1.9,6.19,6.19,0,0,0-5.25-.22,4.76,4.76,0,0,0-1.85,1.47,7.62,7.62,0,0,0-1.21,2.51,13.26,13.26,0,0,0-.43,3.62,11.68,11.68,0,0,0,1,5,10.37,10.37,0,0,0,2.65,3.5,13.2,13.2,0,0,0,3.88,2.28,28.4,28.4,0,0,0,4.67,1.35,42.38,42.38,0,0,1,5.15,1.35,24.08,24.08,0,0,1,3.61,1.52,12.06,12.06,0,0,1,2.36,1.6,7.59,7.59,0,0,1,1.4,1.65,1.29,1.29,0,0,1,.19.37,1.63,1.63,0,0,1,.07.33c0,.21-.22.36-.65.42a11,11,0,0,1-1.69.11,8.42,8.42,0,0,1-.95,0,3.13,3.13,0,0,1-.63-.11,1.42,1.42,0,0,1-.39-.2,1.09,1.09,0,0,1-.23-.25,4.71,4.71,0,0,0-1.52-1.24,13.29,13.29,0,0,0-2.29-1,20.53,20.53,0,0,0-2.56-.68,12.94,12.94,0,0,0-2.29-.25c-.71,0-1.48,0-2.31.05s-1.7.1-2.6.22a22.94,22.94,0,0,0-2.81.52,20.26,20.26,0,0,0-2.91,1l-.12,0c-.17,0-.31-.13-.42-.41a3.34,3.34,0,0,1-.17-1.21,3.19,3.19,0,0,1,.18-1.29,1.05,1.05,0,0,1,.51-.49,13.5,13.5,0,0,1,2.35-.74,16.35,16.35,0,0,1,2.57-.35,15.05,15.05,0,0,1-4.31-1.71,11.71,11.71,0,0,1-3.18-2.78,11.92,11.92,0,0,1-2-3.74,14.83,14.83,0,0,1-.68-4.56,17.39,17.39,0,0,1,.54-4.4,10.09,10.09,0,0,1,1.72-3.65,8.41,8.41,0,0,1,3.14-2.5,10.94,10.94,0,0,1,4.75-.92,8.47,8.47,0,0,1,3.8.78,8.31,8.31,0,0,1,2.62,2,7.84,7.84,0,0,1,3-2.07,10.74,10.74,0,0,1,4.14-.73,11.38,11.38,0,0,1,3.74.58,7.7,7.7,0,0,1,2.86,1.74,7.84,7.84,0,0,1,1.82,2.91A11.63,11.63,0,0,1,219.92,153.09Zm-3.95.23a8.73,8.73,0,0,0-.39-2.71,6,6,0,0,0-1.1-2,4.87,4.87,0,0,0-3.76-1.72,5.63,5.63,0,0,0-2.17.4,4.56,4.56,0,0,0-1.69,1.19,5.41,5.41,0,0,0-1.11,2,8.72,8.72,0,0,0-.41,2.79,7.33,7.33,0,0,0,1.31,4.7,5,5,0,0,0,4.16,1.62,5.6,5.6,0,0,0,2-.36,4.32,4.32,0,0,0,1.64-1.13,5.46,5.46,0,0,0,1.11-1.94A8.84,8.84,0,0,0,216,153.32Z"/><path class="cls-1" d="M226.84,160.38a9.79,9.79,0,0,0-1.21.06,1.9,1.9,0,0,0-.62.16c-.16.08-.22.14-.23.17a1.7,1.7,0,0,0-.19.35c0,.08-.12.38-.32,1.22a11.91,11.91,0,0,0-.23,2.56,11,11,0,0,0,.61,3.61,7.64,7.64,0,0,0,1.95,3,9.78,9.78,0,0,0,3.59,2.11,16.61,16.61,0,0,0,5.56.81,17.52,17.52,0,0,0,5.13-.73,11.34,11.34,0,0,0,4-2.17,10.08,10.08,0,0,0,2.66-3.61,12.33,12.33,0,0,0,1-5.07,14,14,0,0,0-.76-4.95,12.29,12.29,0,0,0-1.91-3.34,13.5,13.5,0,0,0-2.5-2.31c-1-.66-1.83-1.3-2.62-1.9a11.61,11.61,0,0,1-2.08-2.06,4.6,4.6,0,0,1-.9-2.88v-1.34c0-.08,0-.19-.27-.31a5.84,5.84,0,0,0-1.94-.2,6.26,6.26,0,0,0-2.06.21c-.32.12-.32.24-.32.3v1.14a10,10,0,0,0,.76,4.2,9,9,0,0,0,1.9,2.71,15.56,15.56,0,0,0,2.54,2,19.52,19.52,0,0,1,2.7,2,9.72,9.72,0,0,1,2.12,2.76,9.11,9.11,0,0,1,.86,4.21,9.86,9.86,0,0,1-.48,3.15,6.64,6.64,0,0,1-1.51,2.51,6.85,6.85,0,0,1-2.51,1.62,9.73,9.73,0,0,1-3.48.57,8.44,8.44,0,0,1-5.61-1.67,6.07,6.07,0,0,1-2-4.87,8.25,8.25,0,0,1,.32-2.53,4,4,0,0,0,.27-1.06c0-.08-.09-.15-.27-.22A6,6,0,0,0,226.84,160.38Z"/><ellipse class="cls-1" cx="76.77" cy="156.3" rx="43.69" ry="43.56"/><path class="cls-2" d="M56.7,143.07l21.08,6.13a1.41,1.41,0,0,0,1.68-.73v0a1.29,1.29,0,0,0-.81-1.76l-20.74-6.94a1.42,1.42,0,0,0-1.75.75l-.35.83A1.29,1.29,0,0,0,56.7,143.07Z"/><path class="cls-2" d="M58.43,137.09l21,7.33A1.31,1.31,0,0,0,81,144c1-1.42.73-1.56-1.32-2.37C73.17,139.05,67,135.84,60,133.87a1.58,1.58,0,0,0-1.58.47,2.65,2.65,0,0,0-.67,1.07A1.24,1.24,0,0,0,58.43,137.09Z"/><path class="cls-2" d="M67.59,124l-1.12.88a1,1,0,0,0,.18,1.71l16.64,8.54a1.16,1.16,0,0,0,1.6-.5c.45-1,.65-1.55-1.28-2.48-4.71-2.29-9.08-5.1-13.61-7.66-.35-.2-.71-.39-1.11-.6A1.23,1.23,0,0,0,67.59,124Z"/><path class="cls-2" d="M55.27,146.88c-.37,1.2.07,1.78,1.71,2.13,5.65,1.18,11.29,2.43,16.88,3.82,1.69.42,2.68.26,3.22-1a.71.71,0,0,0-.55-.95L57,145.7a1.31,1.31,0,0,0-1.66.86C55.33,146.67,55.31,146.77,55.27,146.88Z"/><path class="cls-2" d="M58,154.76q6.86.84,13.64,2.06c1.2.22,2.28.35,2.74-.19s.54-1.74-.54-1.94l-16.9-3.16a1.27,1.27,0,0,0-1.58,1h0C55.19,154,56.05,154.52,58,154.76Z"/><path class="cls-2" d="M62.09,130.87c6.81,3.29,13.23,6.31,19.81,9.42a1,1,0,0,0,1.12-.22c1.23-1.48,1-1.61-1-2.68l-17.75-9.31A1.45,1.45,0,0,0,63.1,128a2.64,2.64,0,0,0-1.44,1.61A.89.89,0,0,0,62.09,130.87Z"/><path class="cls-2" d="M84.68,127.9c-2.85-1.83-5.52-3.88-8.27-5.85-2.17-1.56-2.54-1.83-4.14-.7a1,1,0,0,0,0,1.64l12.18,7.82a1,1,0,0,0,1.51-.52C86.5,128.9,85.85,128.66,84.68,127.9Z"/><path class="cls-2" d="M60.8,159.93c2.58.29,5.16.68,7.74.9,1.86.17,3.34.88,3.77-1.07a.53.53,0,0,0-.45-.71c-4.59-.67-9.11-1.7-13.84-2-.4,0-.73.42-.75.74C57.13,159.73,57.94,159.61,60.8,159.93Z"/><path class="cls-2" d="M86.1,192.29c-4.07,2.48-8.11,5-12.18,7.49,1.22.09,2.44.11,3.68.09.75,0,1.53-.05,2.27-.1l8.07-5.44a.93.93,0,0,0,.18-1.37l-.37-.42A1.3,1.3,0,0,0,86.1,192.29Z"/><path class="cls-2" d="M62.65,174.92a1,1,0,0,1,1.36-.26c1.78,1.23,1.65,1.5.66,3.89a26.21,26.21,0,0,0-1.14,3.18c-.39,1.44-1.19,2.74-1.42,4.58a.43.43,0,0,0,.56.47c3.83-1.26,8-3,11.72-4.23a.71.71,0,0,0,.21-1.25c-2.61-2-4.65-3.52-7-5.3-4.61-3.55-8.94-7.36-11.86-12.24-5.7-9.54-5.35-19.32-1-29.11,4.25-9.44,11.3-16.4,22.2-19.63a41.34,41.34,0,0,1,8.87-1.49A43.67,43.67,0,0,0,58.73,196,27.44,27.44,0,0,1,62.65,174.92Z"/><path class="cls-2" d="M84.67,190.05c-1-1.33-1.31-.79-4.2.58-4,1.9-7.92,3.86-11.81,5.93-1.63.86-2.75,1.37-3.43,1.79a44.69,44.69,0,0,0,5.34,1.09l13.72-7.68A1.17,1.17,0,0,0,84.67,190.05Z"/><path class="cls-2" d="M77.73,187.19c-4.16,2.09-8.49,4-12.74,5.95-2.71,1.27-3.08,1.5-2,3.24a1.31,1.31,0,0,0,1.68.35l16.1-8.22a.93.93,0,0,0,.07-1.71C80,186.37,79,186.55,77.73,187.19Z"/><path class="cls-2" d="M64.66,187.88c-2.45,1-2.83,1.25-2.1,3.19a.93.93,0,0,0,1.24.45l14-6.09a.74.74,0,0,0,.22-1.3c-1.07-.79-2.23-.72-3.71-.07C71.14,185.43,67.88,186.62,64.66,187.88Z"/><path class="cls-2" d="M89.58,195l-5.43,4.25a41.26,41.26,0,0,0,8.41-2.3c.27-.11.29-.63.09-.84l-.88-.92A1.56,1.56,0,0,0,89.58,195Z"/><path class="cls-2" d="M76.05,177.91a79,79,0,0,1,19.16,17.55.42.42,0,0,0,.5.12,43.69,43.69,0,0,0-.33-78.9,6,6,0,0,0-2-.48,45.36,45.36,0,0,0-12.06,1.47c-1.4.33-2.76.81-4.3,1.33-.55.19-.62.62-.15,1,3.21,2.4,5.92,4.35,9,6.69a.7.7,0,0,0,1.21-.47h0c.44-2.37.92-4.75,1.27-7.14.15-1,.6-1.33,1.76-1.3l.65.05a1,1,0,0,1,1,1c-.79,19.63-8.34,36.76-22.56,51.52a.89.89,0,0,1-1.24,0l-1.18-1.09a.62.62,0,0,1-.07-.81c1.34-1.79,2.77-2.78,4.18-4.73a.41.41,0,0,0-.33-.65c-3.35-.06-7.66-.82-11.12-.94a.47.47,0,0,0-.4.75,24,24,0,0,0,3.29,3.42A90,90,0,0,0,76.05,177.91Z"/></svg>