<svg width="213" height="88" viewBox="0 0 213 88" fill="none" xmlns="http://www.w3.org/2000/svg">
<path d="M118.041 47.3234C117.818 46.5417 117.509 45.7871 117.121 45.0734C116.791 44.4535 116.392 43.8731 115.931 43.3434L114.781 41.9434C114.449 41.555 114.145 41.144 113.871 40.7134C113.634 40.3467 113.509 39.9195 113.511 39.4834C113.526 39.0404 113.593 38.6007 113.711 38.1734C113.873 37.5838 114.141 37.0283 114.501 36.5334C114.526 36.4937 114.543 36.4496 114.551 36.4034C114.551 36.2234 114.371 36.0734 114.021 35.9534C113.565 35.8066 113.089 35.7389 112.611 35.7534C112.136 35.7321 111.661 35.7999 111.211 35.9534C110.93 36.0592 110.677 36.2267 110.471 36.4434C110.201 36.741 109.978 37.0783 109.811 37.4434C109.675 37.7412 109.561 38.0487 109.471 38.3634C109.396 38.6343 109.353 38.9127 109.341 39.1934C109.341 39.4434 109.341 39.6534 109.341 39.8234C109.332 40.4411 109.451 41.0539 109.691 41.6234C109.93 42.1521 110.218 42.6575 110.551 43.1334C110.901 43.6134 111.271 44.1334 111.691 44.5834C112.112 45.0754 112.493 45.6005 112.831 46.1534C113.189 46.7484 113.477 47.3825 113.691 48.0434C113.934 48.8265 114.053 49.6433 114.041 50.4634C114.056 51.2296 113.895 51.9892 113.571 52.6834C113.278 53.3114 112.843 53.8626 112.301 54.2934C111.731 54.7534 111.075 55.0935 110.371 55.2934C109.58 55.5167 108.762 55.6245 107.941 55.6134C107.125 55.6244 106.313 55.5132 105.531 55.2834C104.806 55.0825 104.126 54.7429 103.531 54.2834C102.984 53.8414 102.54 53.2851 102.231 52.6534C101.893 51.9806 101.725 51.2358 101.741 50.4834V28.4834C101.738 28.3552 101.685 28.2331 101.594 28.1433C101.502 28.0536 101.379 28.0033 101.251 28.0034H97.9306C97.8702 28.002 97.8101 28.0127 97.7538 28.0345C97.6975 28.0564 97.646 28.0892 97.6024 28.131C97.5587 28.1728 97.5237 28.2228 97.4994 28.2781C97.4751 28.3334 97.4619 28.393 97.4606 28.4534V50.6934C97.4652 51.286 97.5356 51.8763 97.6706 52.4534C97.9695 53.7941 98.6221 55.0303 99.5606 56.0334C100.101 56.6283 100.741 57.1256 101.451 57.5034C102.282 57.9529 103.17 58.2892 104.091 58.5034C105.244 58.7739 106.426 58.9016 107.611 58.8834C109.138 58.9037 110.658 58.674 112.111 58.2034C113.342 57.807 114.489 57.1828 115.491 56.3634C116.393 55.6106 117.123 54.6728 117.631 53.6134C118.134 52.5689 118.39 51.4228 118.381 50.2634C118.396 49.2728 118.281 48.2844 118.041 47.3234Z" fill="#3B50A3"/>
<path d="M146.936 43.299C146.934 44.7648 146.827 46.2286 146.616 47.679C146.414 49.1584 146.123 50.6244 145.746 52.069C145.423 53.3708 145.015 54.6502 144.526 55.899C144.197 56.8084 143.753 57.672 143.206 58.469C143.206 58.469 143.136 58.579 142.776 58.649C142.264 58.7342 141.745 58.771 141.226 58.759C140.676 58.759 140.226 58.759 139.906 58.759C139.663 58.7406 139.422 58.7005 139.186 58.639L139.046 58.579C139.179 58.1933 139.35 57.8216 139.556 57.469C140.042 56.4996 140.46 55.4971 140.806 54.469C141.319 52.9704 141.737 51.4407 142.056 49.889C142.461 47.8175 142.652 45.7097 142.626 43.599C142.639 42.0134 142.505 40.4299 142.226 38.869C142 37.5365 141.55 36.2518 140.896 35.069C140.306 34.0271 139.463 33.1502 138.446 32.519C137.338 31.8697 136.07 31.5441 134.786 31.579C133.529 31.5527 132.286 31.8487 131.176 32.439C130.142 33.0191 129.269 33.8473 128.636 34.849C127.925 35.9827 127.427 37.2366 127.166 38.549C126.836 40.0901 126.678 41.6631 126.696 43.239C126.673 45.3562 126.864 47.4703 127.266 49.549C127.592 51.1383 128.01 52.7075 128.516 54.249C128.864 55.3121 129.281 56.351 129.766 57.359C129.969 57.7317 130.143 58.1196 130.286 58.519C130.242 58.5552 130.191 58.5824 130.136 58.599C129.903 58.6597 129.666 58.6999 129.426 58.719C129.086 58.719 128.656 58.719 128.106 58.719C127.587 58.7319 127.068 58.695 126.556 58.609C126.196 58.539 126.116 58.439 126.106 58.419C125.557 57.6568 125.11 56.8265 124.776 55.949C124.298 54.7661 123.897 53.5536 123.576 52.319C123.198 50.932 122.907 49.5226 122.706 48.099C122.497 46.6785 122.39 45.2448 122.386 43.809C122.343 41.4422 122.656 39.0824 123.316 36.809C123.838 35.022 124.727 33.3634 125.926 31.939C127.016 30.6851 128.387 29.7053 129.926 29.079C131.599 28.4302 133.381 28.1077 135.176 28.129C136.885 28.0996 138.584 28.4054 140.176 29.029C141.602 29.6243 142.856 30.5661 143.826 31.769C144.906 33.1606 145.686 34.7609 146.116 36.469C146.693 38.6989 146.968 40.996 146.936 43.299Z" fill="#3B50A3"/>
<path d="M183.689 37.4138C183.717 38.8157 183.479 40.2101 182.989 41.5238C182.579 42.6469 181.922 43.6637 181.067 44.4996C180.212 45.3355 179.181 45.9691 178.049 46.3538C176.816 46.7737 175.521 46.98 174.219 46.9638C172.997 46.9788 171.782 46.7791 170.629 46.3738C169.548 45.9983 168.562 45.3912 167.739 44.595C166.917 43.7987 166.279 42.8325 165.869 41.7638C165.385 40.4872 165.154 39.1286 165.189 37.7638C165.172 36.429 165.378 35.1008 165.799 33.8338C165.283 33.0583 164.6 32.4089 163.799 31.9338C162.994 31.5143 162.106 31.2771 161.198 31.2391C160.291 31.2011 159.387 31.3632 158.549 31.7138C157.818 32.0405 157.182 32.5461 156.699 33.1838C156.145 33.939 155.735 34.7899 155.489 35.6938C155.18 36.8749 155.035 38.0931 155.059 39.3138C155.02 41.0338 155.361 42.7412 156.059 44.3138C156.682 45.6562 157.586 46.8497 158.709 47.8138C159.862 48.7903 161.175 49.5615 162.589 50.0938C164.104 50.6765 165.667 51.1281 167.259 51.4438C169.002 51.7854 170.722 52.2363 172.409 52.7938C173.652 53.2016 174.859 53.71 176.019 54.3138C176.866 54.752 177.658 55.289 178.379 55.9138C178.922 56.3941 179.393 56.9498 179.779 57.5638C179.862 57.6761 179.926 57.801 179.969 57.9338C180.004 58.0411 180.027 58.1517 180.039 58.2638C180.039 58.4738 179.819 58.6238 179.389 58.6838C178.829 58.7639 178.264 58.8006 177.699 58.7938C177.382 58.8117 177.065 58.8117 176.749 58.7938C176.536 58.7788 176.325 58.7419 176.119 58.6838C175.979 58.6377 175.848 58.5703 175.729 58.4838C175.64 58.413 175.562 58.3287 175.499 58.2338C175.085 57.7184 174.567 57.2959 173.979 56.9938C173.249 56.5893 172.482 56.2545 171.689 55.9938C170.851 55.7123 169.996 55.4852 169.129 55.3138C168.375 55.1626 167.608 55.0789 166.839 55.0638C166.129 55.0638 165.359 55.0638 164.529 55.1138C163.699 55.1638 162.829 55.2138 161.929 55.3338C160.982 55.4486 160.044 55.6223 159.119 55.8538C158.125 56.1129 157.152 56.4472 156.209 56.8538H156.089C155.919 56.8538 155.779 56.7238 155.669 56.4438C155.538 56.0544 155.481 55.6442 155.499 55.2338C155.47 54.796 155.531 54.3569 155.679 53.9438C155.787 53.7264 155.967 53.5533 156.189 53.4538C156.948 53.1361 157.735 52.8883 158.539 52.7138C159.385 52.5293 160.244 52.4122 161.109 52.3638C159.593 52.0199 158.139 51.4431 156.799 50.6538C155.579 49.9276 154.502 48.9856 153.619 47.8738C152.734 46.7567 152.057 45.49 151.619 44.1338C151.156 42.6586 150.926 41.12 150.939 39.5738C150.93 38.0901 151.112 36.6115 151.479 35.1738C151.801 33.8538 152.386 32.6123 153.199 31.5238C154.028 30.4493 155.106 29.5915 156.339 29.0238C157.834 28.3665 159.457 28.0521 161.089 28.1038C162.399 28.0664 163.7 28.3334 164.889 28.8838C165.887 29.3689 166.778 30.0489 167.509 30.8838C168.332 29.9677 169.36 29.2586 170.509 28.8138C171.827 28.3002 173.234 28.0521 174.649 28.0838C175.919 28.067 177.183 28.2631 178.389 28.6638C179.458 29.0271 180.435 29.6211 181.249 30.4038C182.063 31.2275 182.685 32.2213 183.069 33.3138C183.52 34.6323 183.73 36.0211 183.689 37.4138ZM179.739 37.6438C179.752 36.7256 179.621 35.811 179.349 34.9338C179.114 34.2029 178.74 33.524 178.249 32.9338C177.787 32.3888 177.21 31.9522 176.56 31.655C175.911 31.3577 175.203 31.2071 174.489 31.2138C173.746 31.2027 173.009 31.3387 172.319 31.6138C171.672 31.8759 171.094 32.283 170.629 32.8038C170.121 33.3838 169.742 34.0657 169.519 34.8038C169.232 35.7054 169.093 36.6477 169.109 37.5938C168.996 39.2641 169.458 40.9227 170.419 42.2938C170.939 42.8677 171.586 43.3128 172.308 43.5939C173.03 43.875 173.807 43.9845 174.579 43.9138C175.262 43.9168 175.94 43.7948 176.579 43.5538C177.206 43.31 177.768 42.9231 178.219 42.4238C178.719 41.8606 179.097 41.2001 179.329 40.4838C179.629 39.5675 179.778 38.6082 179.769 37.6438H179.739Z" fill="#3B50A3"/>
<path d="M190.496 44.833C190.092 44.8281 189.688 44.8481 189.286 44.893C189.072 44.9109 188.862 44.965 188.666 45.0531C188.506 45.1331 188.446 45.193 188.436 45.223C188.359 45.3319 188.295 45.4493 188.246 45.573C188.246 45.653 188.126 45.953 187.926 46.793C187.757 47.6356 187.68 48.4939 187.696 49.353C187.696 50.582 187.902 51.8022 188.306 52.963C188.709 54.1033 189.378 55.1315 190.256 55.963C191.287 56.9159 192.512 57.6356 193.846 58.073C195.64 58.6568 197.52 58.9307 199.406 58.883C201.143 58.8953 202.872 58.6493 204.536 58.153C206.002 57.7074 207.363 56.9692 208.536 55.983C209.682 54.9947 210.592 53.7608 211.196 52.373C211.884 50.7727 212.224 49.0447 212.196 47.3031C212.242 45.6208 211.985 43.9439 211.436 42.353C210.979 41.1463 210.334 40.0192 209.526 39.013C208.793 38.1406 207.953 37.3645 207.026 36.703C206.026 36.043 205.196 35.403 204.406 34.8031C203.628 34.2069 202.93 33.5147 202.326 32.743C201.711 31.9115 201.394 30.8969 201.426 29.863V28.5231C201.426 28.4431 201.426 28.333 201.156 28.213C200.525 28.0381 199.869 27.9705 199.216 28.013C198.522 27.9682 197.826 28.0392 197.156 28.223C196.836 28.343 196.836 28.4631 196.836 28.5231V29.6631C196.784 31.1014 197.043 32.5341 197.596 33.863C198.056 34.8761 198.7 35.7949 199.496 36.573C200.271 37.3261 201.122 37.9964 202.036 38.573C202.992 39.1609 203.895 39.83 204.736 40.573C205.603 41.358 206.321 42.293 206.856 43.333C207.474 44.6477 207.769 46.0912 207.716 47.543C207.728 48.6121 207.566 49.676 207.236 50.6931C206.926 51.6317 206.41 52.4892 205.726 53.203C205.019 53.9211 204.162 54.4743 203.216 54.823C202.1 55.2234 200.921 55.4166 199.736 55.393C197.727 55.5234 195.737 54.9311 194.126 53.723C193.448 53.1135 192.917 52.3592 192.57 51.5162C192.224 50.6731 192.072 49.7629 192.126 48.853C192.101 47.9982 192.209 47.1447 192.446 46.323C192.584 45.9837 192.675 45.6271 192.716 45.263C192.716 45.183 192.626 45.113 192.446 45.043C191.812 44.8666 191.153 44.7956 190.496 44.833Z" fill="#3B50A3"/>
<path d="M43.77 87.2556C67.8993 87.2556 87.46 67.7531 87.46 43.6956C87.46 19.638 67.8993 0.135559 43.77 0.135559C19.6407 0.135559 0.0800171 19.638 0.0800171 43.6956C0.0800171 67.7531 19.6407 87.2556 43.77 87.2556Z" fill="#3B50A3"/>
<path d="M23.7 30.4656L44.78 36.5956C45.1011 36.6939 45.4467 36.6744 45.7547 36.5405C46.0627 36.4067 46.3128 36.1674 46.46 35.8656C46.5345 35.698 46.5724 35.5166 46.5711 35.3332C46.5699 35.1499 46.5297 34.9689 46.453 34.8024C46.3764 34.6359 46.2651 34.4876 46.1267 34.3674C45.9882 34.2472 45.8257 34.158 45.65 34.1056L24.91 27.1656C24.5772 27.0516 24.214 27.0653 23.8907 27.2038C23.5674 27.3424 23.307 27.596 23.16 27.9156L22.81 28.7456C22.7435 28.9163 22.7141 29.0992 22.7238 29.2822C22.7335 29.4652 22.7821 29.644 22.8663 29.8067C22.9505 29.9694 23.0684 30.1124 23.2122 30.226C23.3559 30.3396 23.5222 30.4213 23.7 30.4656Z" fill="#2BB673"/>
<path d="M25.43 24.4856L46.43 31.8156C46.7008 31.9325 47.0031 31.9547 47.288 31.8784C47.5729 31.8022 47.8238 31.6321 48 31.3956C49 29.9756 48.73 29.8356 46.68 29.0256C40.17 26.4456 34 23.2355 27 21.2655C26.7189 21.1909 26.4226 21.1952 26.1439 21.2782C25.8651 21.3611 25.6146 21.5194 25.42 21.7356C25.1137 22.033 24.8839 22.4001 24.75 22.8056C24.6784 22.9597 24.6392 23.1269 24.635 23.2968C24.6307 23.4667 24.6614 23.6357 24.7252 23.7932C24.7889 23.9508 24.8844 24.0935 25.0057 24.2126C25.1269 24.3317 25.2714 24.4246 25.43 24.4856Z" fill="#2BB673"/>
<path d="M34.59 11.3956L33.47 12.2756C33.331 12.3793 33.2214 12.5173 33.1518 12.6762C33.0823 12.8351 33.0553 13.0093 33.0735 13.1818C33.0916 13.3543 33.1543 13.519 33.2554 13.66C33.3565 13.8009 33.4925 13.9131 33.65 13.9856L50.29 22.5256C50.4271 22.6013 50.5782 22.6485 50.734 22.6642C50.8899 22.68 51.0473 22.6641 51.1968 22.6173C51.3463 22.5706 51.4848 22.4941 51.604 22.3924C51.7231 22.2907 51.8204 22.1659 51.89 22.0256C52.34 21.0256 52.54 20.4756 50.61 19.5456C45.9 17.2556 41.53 14.4456 37 11.8856C36.65 11.6856 36.29 11.4956 35.89 11.2856C35.6848 11.1801 35.4541 11.1346 35.2242 11.154C34.9944 11.1735 34.7746 11.2572 34.59 11.3956Z" fill="#2BB673"/>
<path d="M22.27 34.2756C21.9 35.4756 22.34 36.0556 23.98 36.4056C29.63 37.5856 35.27 38.8356 40.86 40.2256C42.55 40.6456 43.54 40.4856 44.08 39.2256C44.1169 39.1273 44.1315 39.022 44.1228 38.9174C44.1141 38.8127 44.0823 38.7114 44.0297 38.6205C43.9771 38.5296 43.905 38.4516 43.8186 38.3919C43.7322 38.3323 43.6336 38.2925 43.53 38.2756L24 33.0956C23.8346 33.0414 23.6601 33.0207 23.4866 33.0347C23.3131 33.0488 23.1441 33.0972 22.9896 33.1773C22.835 33.2574 22.698 33.3674 22.5865 33.501C22.4749 33.6347 22.3912 33.7892 22.34 33.9556C22.33 34.0656 22.31 34.1656 22.27 34.2756Z" fill="#2BB673"/>
<path d="M25 42.1555C29.5733 42.7155 34.12 43.4022 38.64 44.2156C39.84 44.4356 40.92 44.5656 41.38 44.0256C41.84 43.4856 41.92 42.2856 40.84 42.0856L23.94 38.9255C23.7703 38.8798 23.593 38.8698 23.4192 38.8962C23.2454 38.9226 23.079 38.9847 22.9305 39.0787C22.782 39.1727 22.6546 39.2965 22.5564 39.4423C22.4582 39.588 22.3913 39.7526 22.36 39.9255C22.19 41.3955 23.05 41.9155 25 42.1555Z" fill="#2BB673"/>
<path d="M29.09 18.2656C35.9 21.5556 42.32 24.5756 48.9 27.6856C49.0869 27.7675 49.2943 27.7904 49.4945 27.7511C49.6947 27.7117 49.8781 27.6121 50.02 27.4656C51.25 25.9856 51.02 25.8556 49.02 24.7856L31.27 15.4756C31.0913 15.3815 30.8949 15.3258 30.6935 15.312C30.492 15.2982 30.2899 15.3267 30.1 15.3956C29.76 15.5472 29.456 15.7691 29.2078 16.0466C28.9596 16.324 28.773 16.6508 28.66 17.0056C28.5979 17.115 28.5598 17.2363 28.548 17.3616C28.5362 17.4868 28.5512 17.6132 28.5918 17.7322C28.6324 17.8513 28.6978 17.9604 28.7837 18.0523C28.8696 18.1443 28.974 18.2169 29.09 18.2656Z" fill="#2BB673"/>
<path d="M51.68 15.2956C48.83 13.4656 46.16 11.4156 43.41 9.44557C41.24 7.88557 40.87 7.61557 39.27 8.74557C39.138 8.83772 39.0302 8.9604 38.9557 9.10316C38.8813 9.24593 38.8424 9.40456 38.8424 9.56557C38.8424 9.72658 38.8813 9.88521 38.9557 10.028C39.0302 10.1707 39.138 10.2934 39.27 10.3856L51.45 18.2056C51.5784 18.2921 51.7251 18.3477 51.8786 18.3679C52.0321 18.388 52.1882 18.3723 52.3346 18.3219C52.481 18.2715 52.6137 18.1878 52.7222 18.0773C52.8307 17.9669 52.9121 17.8328 52.96 17.6856C53.5 16.2956 52.85 16.0556 51.68 15.2956Z" fill="#2BB673"/>
<path d="M27.8 47.3255C30.38 47.6155 32.96 48.0056 35.54 48.2256C37.4 48.3956 38.88 49.1055 39.31 47.1555C39.3379 47.0793 39.3479 46.9976 39.3393 46.9168C39.3306 46.836 39.3035 46.7583 39.26 46.6897C39.2165 46.621 39.1578 46.5633 39.0884 46.521C39.0191 46.4787 38.9409 46.4529 38.86 46.4456C34.27 45.7756 29.75 44.7456 25.02 44.4456C24.62 44.4456 24.29 44.8655 24.27 45.1855C24.13 47.1255 24.94 47.0055 27.8 47.3255Z" fill="#2BB673"/>
<path d="M53.1 79.6856C49.03 82.1656 44.99 84.6856 40.92 87.1756C42.14 87.2656 43.36 87.2856 44.6 87.2656C45.35 87.2656 46.13 87.2156 46.87 87.1656L54.94 81.7256C55.0473 81.6517 55.1379 81.5561 55.2059 81.445C55.274 81.3339 55.3179 81.2098 55.3348 81.0806C55.3518 80.9514 55.3415 80.8202 55.3045 80.6953C55.2674 80.5704 55.2046 80.4546 55.12 80.3556L54.75 79.9356C54.548 79.7069 54.2721 79.5566 53.9704 79.5109C53.6688 79.4652 53.3607 79.527 53.1 79.6856Z" fill="#2BB673"/>
<path d="M29.65 62.3156C29.7994 62.1051 30.0243 61.9606 30.2777 61.9121C30.5312 61.8637 30.7936 61.9151 31.01 62.0556C32.79 63.2856 32.66 63.5556 31.67 65.9456C31.222 66.98 30.8412 68.0422 30.53 69.1256C30.14 70.5656 29.34 71.8656 29.11 73.7056C29.0995 73.778 29.1077 73.852 29.1338 73.9204C29.1599 73.9888 29.2031 74.0494 29.2591 74.0965C29.3152 74.1436 29.3824 74.1756 29.4543 74.1894C29.5262 74.2032 29.6005 74.1985 29.67 74.1756C33.5 72.9156 37.67 71.1756 41.39 69.9456C41.5155 69.9066 41.6276 69.8336 41.7141 69.7346C41.8005 69.6357 41.8578 69.5147 41.8795 69.3852C41.9013 69.2556 41.8867 69.1226 41.8374 69.0008C41.788 68.8791 41.7058 68.7734 41.6 68.6956C38.99 66.6956 36.95 65.1756 34.6 63.3956C29.99 59.8456 25.66 56.0356 22.74 51.1556C17.04 41.6156 17.39 31.8356 21.74 22.0456C25.99 12.6056 33.04 5.64558 43.94 2.41558C46.8337 1.5978 49.808 1.09818 52.81 0.925584C42.2935 -1.27465 31.335 0.479221 22.0305 5.85172C12.726 11.2242 5.72857 19.8383 2.37666 30.0462C-0.975243 40.2542 -0.446373 51.3395 3.86212 61.182C8.17061 71.0245 15.9563 78.9333 25.73 83.3956C24.935 79.7987 24.8724 76.0785 25.5458 72.4569C26.2193 68.8352 27.6151 65.3863 29.65 62.3156Z" fill="#2BB673"/>
<path d="M51.67 77.4456C50.67 76.1156 50.36 76.6556 47.47 78.0256C43.47 79.9256 39.55 81.8856 35.66 83.9556C34.03 84.8156 32.91 85.3256 32.23 85.7456C33.9862 86.2172 35.7695 86.5812 37.57 86.8356L51.29 79.1556C51.4348 79.0753 51.561 78.9652 51.6601 78.8325C51.7592 78.6999 51.829 78.5477 51.8649 78.3861C51.9008 78.2245 51.902 78.057 51.8684 77.8949C51.8348 77.7328 51.7672 77.5796 51.67 77.4456Z" fill="#2BB673"/>
<path d="M44.73 74.5856C40.57 76.6756 36.24 78.5856 31.99 80.5356C29.28 81.8056 28.91 82.0356 29.99 83.7756C30.1811 84.0263 30.4561 84.1996 30.7647 84.2639C31.0733 84.3282 31.3947 84.2791 31.67 84.1255L47.77 75.9055C47.9406 75.841 48.0885 75.7278 48.1952 75.5799C48.302 75.432 48.3629 75.2559 48.3703 75.0737C48.3778 74.8914 48.3315 74.711 48.2372 74.5549C48.1429 74.3987 48.0048 74.2738 47.84 74.1956C47 73.7656 46 73.9456 44.73 74.5856Z" fill="#2BB673"/>
<path d="M31.66 75.2756C29.21 76.2756 28.83 76.5256 29.56 78.4656C29.6116 78.5768 29.6847 78.6767 29.775 78.7596C29.8653 78.8424 29.9712 78.9066 30.0864 78.9484C30.2017 78.9903 30.324 79.0089 30.4465 79.0033C30.569 78.9976 30.6891 78.9678 30.8 78.9156L44.8 72.8256C44.9302 72.7847 45.0466 72.7087 45.1362 72.6059C45.2259 72.5031 45.2854 72.3775 45.3082 72.2429C45.331 72.1084 45.3161 71.9702 45.2652 71.8436C45.2144 71.717 45.1295 71.607 45.02 71.5256C43.95 70.7356 42.79 70.8056 41.31 71.4556C38.14 72.8256 34.88 74.0156 31.66 75.2756Z" fill="#2BB673"/>
<path d="M56.58 82.3956L51.15 86.6456C54.0267 86.1781 56.8458 85.4071 59.56 84.3455C59.83 84.2355 59.85 83.7156 59.65 83.5056L58.77 82.5856C58.5039 82.2712 58.1244 82.0749 57.7142 82.0393C57.3039 82.0037 56.8962 82.1318 56.58 82.3956Z" fill="#2BB673"/>
<path d="M43.05 65.3056C50.3615 70.058 56.8357 75.9882 62.21 82.8556C62.2683 82.9281 62.349 82.9793 62.4395 83.001C62.53 83.0227 62.6252 83.0138 62.71 82.9756C70.152 79.3956 76.427 73.7798 80.8075 66.7791C85.188 59.7784 87.4947 51.6795 87.4602 43.4213C87.4256 35.1632 85.0513 27.0839 80.6123 20.1201C76.1734 13.1562 69.8517 7.59311 62.38 4.07556C61.746 3.80163 61.0693 3.63925 60.38 3.59556C56.3123 3.54254 52.2559 4.03698 48.32 5.06556C46.92 5.39556 45.56 5.87556 44.02 6.39556C43.47 6.58556 43.4 7.01556 43.87 7.39556C47.08 9.79556 49.79 11.7456 52.87 14.0856C52.9656 14.1872 53.0893 14.258 53.2253 14.2888C53.3614 14.3197 53.5035 14.3092 53.6335 14.2587C53.7636 14.2081 53.8755 14.1199 53.9551 14.0054C54.0346 13.8908 54.0781 13.755 54.08 13.6156C54.52 11.2456 55 8.86556 55.35 6.47556C55.5 5.47556 55.95 5.14556 57.11 5.17556L57.76 5.22556C58.0252 5.22556 58.2796 5.33092 58.4671 5.51845C58.6547 5.70599 58.76 5.96035 58.76 6.22556C57.97 25.8556 50.42 42.9856 36.2 57.7456C36.0339 57.9068 35.8115 57.997 35.58 57.997C35.3485 57.997 35.1261 57.9068 34.96 57.7456L33.78 56.6556C33.6727 56.5516 33.6066 56.4125 33.5937 56.2636C33.5809 56.1148 33.6222 55.9664 33.71 55.8456C35.05 54.0556 36.48 53.0656 37.89 51.1156C37.9341 51.0545 37.9605 50.9825 37.9664 50.9074C37.9722 50.8323 37.9573 50.7571 37.9232 50.6899C37.8891 50.6228 37.8372 50.5663 37.7731 50.5268C37.7091 50.4872 37.6353 50.466 37.56 50.4656C34.21 50.4056 29.9 49.6456 26.44 49.5256C26.351 49.5212 26.2627 49.5423 26.1852 49.5862C26.1077 49.6302 26.0443 49.6952 26.0024 49.7738C25.9605 49.8524 25.9418 49.9413 25.9484 50.0302C25.9551 50.119 25.9868 50.2041 26.04 50.2756C27.021 51.5215 28.1231 52.6671 29.33 53.6956C33.5045 58.0137 38.1008 61.9031 43.05 65.3056Z" fill="#2BB673"/>
</svg>
