<svg width="65" height="22" viewBox="0 0 65 22" fill="none" xmlns="http://www.w3.org/2000/svg">
<path d="M10.9999 21.9957C17.075 21.9957 21.9999 17.0794 21.9999 11.0149C21.9999 4.9504 17.075 0.0341492 10.9999 0.0341492C4.92484 0.0341492 0 4.9504 0 11.0149C0 17.0794 4.92484 21.9957 10.9999 21.9957Z" fill="#3B50A3"/>
<path d="M5.94686 7.67988L11.2542 9.22515C11.3351 9.24993 11.4221 9.24501 11.4996 9.21128C11.5772 9.17754 11.6401 9.11721 11.6772 9.04113C11.6959 8.9989 11.7055 8.95315 11.7052 8.90693C11.7049 8.86072 11.6947 8.8151 11.6754 8.77312C11.6561 8.73114 11.6281 8.69376 11.5933 8.66347C11.5584 8.63318 11.5175 8.61068 11.4733 8.59746L6.2515 6.848C6.16772 6.81928 6.07626 6.82272 5.99487 6.85765C5.91347 6.89258 5.84791 6.95651 5.8109 7.03707L5.72278 7.2463C5.70603 7.28933 5.69863 7.33545 5.70108 7.38157C5.70352 7.42769 5.71575 7.47277 5.73695 7.51379C5.75815 7.55481 5.78784 7.59084 5.82403 7.61948C5.86022 7.64812 5.9021 7.66871 5.94686 7.67988Z" fill="#2BB673"/>
<path d="M6.38243 6.17241L11.6696 8.02019C11.7378 8.04967 11.8139 8.05525 11.8857 8.03604C11.9574 8.01683 12.0206 7.97394 12.0649 7.91431C12.3167 7.55635 12.2487 7.52106 11.7326 7.31687C10.0935 6.6665 8.54011 5.85731 6.77771 5.3607C6.70693 5.34188 6.63234 5.34298 6.56215 5.36388C6.49196 5.38479 6.4289 5.42469 6.37991 5.47918C6.3028 5.55417 6.24493 5.64671 6.21122 5.74891C6.19319 5.78777 6.18333 5.82992 6.18226 5.87275C6.18118 5.91558 6.18891 5.95817 6.20497 5.99789C6.22102 6.0376 6.24506 6.07359 6.27559 6.10361C6.30611 6.13363 6.34248 6.15705 6.38243 6.17241Z" fill="#2BB673"/>
<path d="M8.68866 2.87264L8.40668 3.09447C8.37168 3.12061 8.34407 3.15541 8.32657 3.19546C8.30906 3.23551 8.30226 3.27944 8.30683 3.32291C8.3114 3.36639 8.32719 3.40793 8.35264 3.44345C8.37809 3.47897 8.41233 3.50726 8.45199 3.52553L12.6415 5.67833C12.676 5.69742 12.714 5.70931 12.7533 5.71328C12.7925 5.71726 12.8321 5.71324 12.8698 5.70146C12.9074 5.68968 12.9423 5.67039 12.9723 5.64475C13.0023 5.61911 13.0268 5.58766 13.0443 5.55229C13.1576 5.3002 13.208 5.16155 12.7221 4.92712C11.5362 4.34984 10.436 3.64149 9.29543 2.99616C9.20731 2.94574 9.11667 2.89784 9.01596 2.84491C8.9643 2.81833 8.90621 2.80684 8.84834 2.81174C8.79046 2.81665 8.73513 2.83775 8.68866 2.87264Z" fill="#2BB673"/>
<path d="M5.58683 8.64032C5.49368 8.94282 5.60446 9.08902 6.01736 9.17725C7.43988 9.47471 8.85987 9.78982 10.2673 10.1402C10.6928 10.2461 10.942 10.2058 11.078 9.88813C11.0873 9.86335 11.0909 9.83681 11.0888 9.81044C11.0866 9.78406 11.0786 9.75851 11.0653 9.7356C11.0521 9.7127 11.0339 9.69302 11.0122 9.67798C10.9904 9.66295 10.9656 9.65293 10.9395 9.64865L6.0224 8.34286C5.98075 8.3292 5.93681 8.32398 5.89313 8.32752C5.84945 8.33106 5.80691 8.34328 5.768 8.36346C5.72909 8.38365 5.69459 8.41139 5.66651 8.44507C5.63843 8.47876 5.61733 8.51771 5.60446 8.55965C5.60194 8.58738 5.5969 8.61259 5.58683 8.64032Z" fill="#2BB673"/>
<path d="M6.27417 10.6267C7.42561 10.7679 8.57033 10.941 9.70834 11.146C10.0105 11.2015 10.2824 11.2343 10.3982 11.0981C10.514 10.962 10.5342 10.6595 10.2622 10.6091L6.00729 9.8125C5.96456 9.80098 5.91991 9.79846 5.87616 9.80511C5.83241 9.81175 5.79052 9.82742 5.75312 9.85111C5.71573 9.87481 5.68366 9.90601 5.65894 9.94276C5.63421 9.97951 5.61738 10.021 5.60949 10.0646C5.56669 10.4351 5.78321 10.5662 6.27417 10.6267Z" fill="#2BB673"/>
<path d="M7.30392 4.60447C9.01849 5.43382 10.6349 6.19511 12.2915 6.97909C12.3386 6.99975 12.3908 7.00551 12.4412 6.9956C12.4916 6.98569 12.5378 6.96058 12.5735 6.92364C12.8832 6.55055 12.8253 6.51778 12.3217 6.24805L7.85278 3.90115C7.80779 3.87744 7.75835 3.86339 7.70762 3.85992C7.6569 3.85645 7.60601 3.86362 7.55821 3.88099C7.47262 3.91922 7.39606 3.97514 7.33358 4.04509C7.2711 4.11504 7.22409 4.19742 7.19566 4.28684C7.18003 4.31442 7.17042 4.34501 7.16745 4.37659C7.16449 4.40816 7.16825 4.44 7.17848 4.47002C7.18871 4.50003 7.20518 4.52754 7.2268 4.55071C7.24843 4.57389 7.27471 4.5922 7.30392 4.60447Z" fill="#2BB673"/>
<path d="M12.9915 3.85576C12.2739 3.39444 11.6017 2.87767 10.9093 2.38107C10.363 1.98782 10.2698 1.91976 9.86696 2.20461C9.83372 2.22784 9.80657 2.25877 9.78783 2.29475C9.76908 2.33074 9.75929 2.37073 9.75929 2.41132C9.75929 2.45191 9.76908 2.4919 9.78783 2.52788C9.80657 2.56387 9.83372 2.5948 9.86696 2.61803L12.9335 4.58932C12.9659 4.61114 13.0028 4.62514 13.0415 4.63023C13.0801 4.63532 13.1194 4.63135 13.1563 4.61865C13.1931 4.60594 13.2265 4.58483 13.2539 4.557C13.2812 4.52916 13.3017 4.49535 13.3137 4.45824C13.4497 4.10784 13.286 4.04734 12.9915 3.85576Z" fill="#2BB673"/>
<path d="M6.97913 11.93C7.6287 12.0031 8.27827 12.1014 8.92784 12.1569C9.39614 12.1997 9.76876 12.3787 9.87702 11.8871C9.88405 11.8679 9.88657 11.8473 9.88439 11.8269C9.8822 11.8066 9.87537 11.787 9.86442 11.7697C9.85347 11.7524 9.8387 11.7378 9.82124 11.7272C9.80378 11.7165 9.7841 11.71 9.76373 11.7081C8.60809 11.5393 7.47008 11.2796 6.2792 11.204C6.17849 11.204 6.09541 11.3099 6.09037 11.3905C6.05512 11.8796 6.25906 11.8493 6.97913 11.93Z" fill="#2BB673"/>
<path d="M13.349 20.0874C12.3243 20.7126 11.3071 21.3478 10.2824 21.9755C10.5895 21.9982 10.8967 22.0032 11.2089 21.9982C11.3977 21.9982 11.5941 21.9856 11.7804 21.973L13.8122 20.6017C13.8392 20.583 13.8621 20.559 13.8792 20.5309C13.8963 20.5029 13.9074 20.4716 13.9116 20.4391C13.9159 20.4065 13.9133 20.3734 13.904 20.3419C13.8947 20.3105 13.8788 20.2813 13.8575 20.2563L13.7644 20.1504C13.7135 20.0928 13.6441 20.0549 13.5681 20.0434C13.4922 20.0319 13.4146 20.0474 13.349 20.0874Z" fill="#2BB673"/>
<path d="M7.44492 15.7087C7.48252 15.6557 7.53915 15.6192 7.60296 15.607C7.66678 15.5948 7.73284 15.6078 7.78733 15.6432C8.23549 15.9533 8.20275 16.0213 7.9535 16.6238C7.84071 16.8846 7.74484 17.1523 7.66648 17.4254C7.56829 17.7884 7.36687 18.1161 7.30896 18.58C7.30632 18.5982 7.30839 18.6169 7.31496 18.6341C7.32153 18.6514 7.33239 18.6666 7.34651 18.6785C7.36063 18.6904 7.37754 18.6984 7.39565 18.7019C7.41375 18.7054 7.43244 18.7042 7.44995 18.6984C8.41424 18.3808 9.46413 17.9422 10.4007 17.6321C10.4323 17.6223 10.4606 17.6039 10.4823 17.579C10.5041 17.554 10.5185 17.5235 10.524 17.4909C10.5295 17.4582 10.5258 17.4247 10.5134 17.394C10.5009 17.3633 10.4802 17.3366 10.4536 17.317C9.79647 16.8129 9.28286 16.4297 8.69119 15.981C7.53052 15.0861 6.44035 14.1256 5.70517 12.8955C4.27007 10.4906 4.35819 8.02523 5.4534 5.55733C6.52343 3.17766 8.29843 1.42316 11.0427 0.608928C11.7713 0.402778 12.5201 0.276832 13.276 0.233324C10.6282 -0.321318 7.86915 0.120804 5.52653 1.47512C3.18391 2.82944 1.42216 5.0009 0.578245 7.57416C-0.265672 10.1474 -0.132517 12.9419 0.952242 15.423C2.037 17.9041 3.99722 19.8978 6.45797 21.0227C6.25781 20.1159 6.24204 19.1781 6.4116 18.2652C6.58116 17.3522 6.93259 16.4828 7.44492 15.7087Z" fill="#2BB673"/>
<path d="M12.9889 19.5228C12.7371 19.1875 12.6591 19.3236 11.9315 19.669C10.9244 20.1479 9.93744 20.642 8.95805 21.1638C8.54766 21.3806 8.26567 21.5092 8.09447 21.6151C8.53662 21.7339 8.98561 21.8257 9.43893 21.8898L12.8932 19.9538C12.9297 19.9336 12.9615 19.9058 12.9864 19.8724C13.0114 19.839 13.0289 19.8006 13.038 19.7598C13.047 19.7191 13.0473 19.6769 13.0389 19.636C13.0304 19.5952 13.0134 19.5566 12.9889 19.5228Z" fill="#2BB673"/>
<path d="M11.2416 18.8018C10.1943 19.3286 9.10409 19.8101 8.03406 20.3017C7.35175 20.6218 7.2586 20.6798 7.53051 21.1184C7.57862 21.1816 7.64787 21.2253 7.72556 21.2415C7.80326 21.2577 7.88418 21.2454 7.95349 21.2066L12.007 19.1345C12.05 19.1183 12.0872 19.0897 12.1141 19.0524C12.141 19.0151 12.1563 18.9708 12.1582 18.9248C12.16 18.8789 12.1484 18.8334 12.1246 18.794C12.1009 18.7547 12.0661 18.7232 12.0246 18.7035C11.8132 18.5951 11.5614 18.6404 11.2416 18.8018Z" fill="#2BB673"/>
<path d="M7.95097 18.9757C7.33413 19.2278 7.23845 19.2908 7.42225 19.7799C7.43523 19.8079 7.45363 19.8331 7.47637 19.854C7.49912 19.8749 7.52577 19.8911 7.55478 19.9016C7.5838 19.9121 7.6146 19.9168 7.64544 19.9154C7.67627 19.914 7.70652 19.9065 7.73444 19.8933L11.2593 18.3581C11.292 18.3478 11.3213 18.3287 11.3439 18.3027C11.3665 18.2768 11.3815 18.2452 11.3872 18.2113C11.3929 18.1773 11.3892 18.1425 11.3764 18.1106C11.3636 18.0787 11.3422 18.0509 11.3146 18.0304C11.0452 17.8313 10.7532 17.8489 10.3806 18.0128C9.58245 18.3581 8.76167 18.6581 7.95097 18.9757Z" fill="#2BB673"/>
<path d="M14.2251 20.7706L12.858 21.8419C13.5823 21.7241 14.2921 21.5297 14.9754 21.2621C15.0434 21.2344 15.0484 21.1033 14.9981 21.0504L14.7765 20.8185C14.7095 20.7392 14.614 20.6897 14.5107 20.6808C14.4074 20.6718 14.3048 20.7041 14.2251 20.7706Z" fill="#2BB673"/>
<path d="M10.8186 16.4624C12.6595 17.6605 14.2895 19.1554 15.6426 20.8865C15.6573 20.9048 15.6776 20.9177 15.7004 20.9232C15.7232 20.9287 15.7471 20.9264 15.7685 20.9168C17.6422 20.0143 19.222 18.5987 20.3249 16.8339C21.4278 15.0691 22.0086 13.0275 21.9999 10.9458C21.9912 8.86404 21.3934 6.82739 20.2758 5.07192C19.1582 3.31646 17.5666 1.91408 15.6854 1.02737C15.5258 0.958315 15.3554 0.91738 15.1819 0.906366C14.1577 0.893003 13.1364 1.01764 12.1455 1.27693C11.793 1.36012 11.4506 1.48112 11.0629 1.6122C10.9244 1.6601 10.9068 1.76849 11.0251 1.86428C11.8333 2.46929 12.5156 2.96085 13.2911 3.55072C13.3151 3.57635 13.3463 3.59419 13.3805 3.60196C13.4148 3.60974 13.4505 3.60709 13.4833 3.59436C13.516 3.58163 13.5442 3.55939 13.5642 3.53051C13.5843 3.50162 13.5952 3.46741 13.5957 3.43225C13.7065 2.83481 13.8273 2.23485 13.9154 1.63237C13.9532 1.38028 14.0665 1.2971 14.3586 1.30466L14.5222 1.31726C14.589 1.31726 14.653 1.34382 14.7002 1.3911C14.7475 1.43837 14.774 1.50249 14.774 1.56935C14.5751 6.51775 12.6742 10.8359 9.09401 14.5567C9.05219 14.5973 8.9962 14.6201 8.93791 14.6201C8.87962 14.6201 8.82363 14.5973 8.78181 14.5567L8.48472 14.2819C8.45771 14.2557 8.44105 14.2206 8.43781 14.1831C8.43457 14.1456 8.44497 14.1082 8.46709 14.0777C8.80447 13.6265 9.1645 13.3769 9.5195 12.8854C9.5306 12.87 9.53725 12.8518 9.53872 12.8329C9.5402 12.814 9.53644 12.795 9.52785 12.7781C9.51927 12.7612 9.5062 12.7469 9.49007 12.737C9.47394 12.727 9.45538 12.7216 9.43642 12.7215C8.59298 12.7064 7.50784 12.5148 6.63671 12.4846C6.61431 12.4835 6.59206 12.4888 6.57255 12.4999C6.55304 12.5109 6.53708 12.5273 6.52653 12.5471C6.51597 12.567 6.51126 12.5894 6.51294 12.6118C6.51461 12.6342 6.52261 12.6556 6.536 12.6736C6.78299 12.9877 7.06045 13.2765 7.36433 13.5358C8.41535 14.6243 9.57256 15.6047 10.8186 16.4624Z" fill="#2BB673"/>
<path d="M33.7914 12.2801C33.7179 12.0222 33.6161 11.7731 33.4878 11.5376C33.379 11.333 33.2472 11.1415 33.0951 10.9667L32.7156 10.5047C32.6062 10.3766 32.5059 10.2409 32.4153 10.0988C32.3374 9.97782 32.2961 9.83685 32.2965 9.69292C32.3015 9.54673 32.3236 9.40163 32.3625 9.26062C32.4162 9.06605 32.5046 8.88273 32.6232 8.71942C32.6314 8.70633 32.6371 8.69176 32.6397 8.67652C32.6397 8.61712 32.5803 8.56762 32.4648 8.52802C32.3146 8.47957 32.1572 8.45724 31.9995 8.46202C31.8427 8.45499 31.686 8.47738 31.5375 8.52802C31.445 8.56295 31.3616 8.61821 31.2933 8.68972C31.2043 8.78794 31.1308 8.89923 31.0755 9.01972C31.0306 9.11801 30.9931 9.21948 30.9633 9.32332C30.9388 9.41272 30.9244 9.5046 30.9204 9.59722C30.9204 9.67972 30.9204 9.74902 30.9204 9.80512C30.9175 10.009 30.9569 10.2112 31.0359 10.3991C31.115 10.5736 31.21 10.7404 31.3197 10.8974C31.4352 11.0558 31.5573 11.2274 31.6959 11.3759C31.8349 11.5383 31.9607 11.7116 32.0721 11.894C32.1903 12.0904 32.2855 12.2996 32.3559 12.5177C32.4364 12.7761 32.4753 13.0457 32.4714 13.3163C32.4765 13.5692 32.4235 13.8198 32.3163 14.0489C32.2198 14.2562 32.0763 14.4381 31.8972 14.5802C31.7093 14.732 31.4927 14.8443 31.2603 14.9102C30.9995 14.9839 30.7294 15.0195 30.4584 15.0158C30.1894 15.0195 29.9213 14.9828 29.6631 14.9069C29.4238 14.8406 29.1997 14.7285 29.0031 14.5769C28.8226 14.4311 28.6761 14.2475 28.5741 14.039C28.4628 13.817 28.4073 13.5712 28.4124 13.3229V6.06292C28.4115 6.02061 28.3941 5.98032 28.3639 5.95071C28.3337 5.92109 28.293 5.90451 28.2507 5.90452H27.1551C27.1352 5.90408 27.1153 5.90758 27.0968 5.9148C27.0782 5.92203 27.0612 5.93285 27.0468 5.94664C27.0324 5.96043 27.0208 5.97692 27.0128 5.99517C27.0048 6.01343 27.0004 6.03308 27 6.05302V13.3922C27.0015 13.5878 27.0248 13.7826 27.0693 13.973C27.168 14.4155 27.3833 14.8234 27.693 15.1544C27.8715 15.3507 28.0825 15.5148 28.3167 15.6395C28.5911 15.7879 28.8841 15.8989 29.1879 15.9695C29.5685 16.0588 29.9586 16.1009 30.3495 16.0949C30.8534 16.1016 31.3551 16.0258 31.8345 15.8705C32.241 15.7397 32.6194 15.5337 32.9499 15.2633C33.2476 15.0149 33.4884 14.7054 33.6561 14.3558C33.8222 14.0111 33.9069 13.6329 33.9036 13.2503C33.9086 12.9234 33.8708 12.5973 33.7914 12.2801Z" fill="#3B50A3"/>
<path d="M43.3268 10.9521C43.3264 11.4358 43.2911 11.9188 43.2212 12.3975C43.1545 12.8857 43.0586 13.3694 42.9341 13.8462C42.8275 14.2758 42.693 14.698 42.5315 15.1101C42.423 15.4102 42.2766 15.6952 42.0959 15.9582C42.0959 15.9582 42.0728 15.9945 41.954 16.0176C41.7851 16.0457 41.6138 16.0578 41.4425 16.0539C41.261 16.0539 41.1125 16.0539 41.0069 16.0539C40.9267 16.0478 40.8472 16.0346 40.7693 16.0143L40.7231 15.9945C40.7672 15.8672 40.8236 15.7445 40.8914 15.6282C41.052 15.3083 41.1898 14.9775 41.3039 14.6382C41.4734 14.1436 41.6111 13.6388 41.7164 13.1268C41.8502 12.4432 41.9133 11.7476 41.9045 11.0511C41.909 10.5278 41.8648 10.0053 41.7725 9.49018C41.6979 9.05045 41.5495 8.62648 41.3336 8.23618C41.139 7.89233 40.8609 7.60295 40.5251 7.39468C40.1595 7.18041 39.741 7.07295 39.3173 7.08448C38.9025 7.07577 38.4924 7.17348 38.126 7.36828C37.785 7.5597 37.4969 7.83302 37.2878 8.16358C37.0532 8.53769 36.8888 8.95146 36.8027 9.38458C36.6938 9.89313 36.6417 10.4122 36.6476 10.9323C36.6401 11.6309 36.7031 12.3286 36.8357 13.0146C36.9435 13.539 37.0812 14.0569 37.2482 14.5656C37.363 14.9164 37.5008 15.2592 37.6607 15.5919C37.7277 15.7149 37.7851 15.8429 37.8323 15.9747C37.8177 15.9866 37.8009 15.9956 37.7828 16.0011C37.7061 16.0211 37.6277 16.0344 37.5485 16.0407C37.4363 16.0407 37.2944 16.0407 37.1129 16.0407C36.9417 16.0449 36.7704 16.0328 36.6014 16.0044C36.4826 15.9813 36.4562 15.9483 36.4529 15.9417C36.2719 15.6902 36.1244 15.4162 36.014 15.1266C35.8565 14.7362 35.7242 14.3361 35.618 13.9287C35.4932 13.471 35.3973 13.0059 35.3309 12.5361C35.2621 12.0673 35.2268 11.5942 35.2253 11.1204C35.2111 10.3393 35.3145 9.5606 35.5322 8.81038C35.7046 8.22066 35.9979 7.67333 36.3935 7.20328C36.7534 6.78947 37.2056 6.46616 37.7135 6.25948C38.2657 6.04536 38.8538 5.93895 39.446 5.94598C40.0102 5.93628 40.5707 6.03718 41.096 6.24298C41.5666 6.43941 41.9806 6.75021 42.3005 7.14718C42.657 7.60638 42.9143 8.1345 43.0562 8.69818C43.2466 9.43405 43.3376 10.1921 43.3268 10.9521Z" fill="#3B50A3"/>
<path d="M55.4554 9.00997C55.4645 9.47258 55.3861 9.93276 55.2244 10.3663C55.089 10.7369 54.8723 11.0724 54.5902 11.3483C54.3081 11.6241 53.9677 11.8332 53.5942 11.9602C53.1874 12.0987 52.76 12.1668 52.3303 12.1615C51.927 12.1664 51.526 12.1005 51.1456 11.9668C50.7888 11.8429 50.4633 11.6425 50.192 11.3797C49.9207 11.117 49.71 10.7981 49.5748 10.4455C49.4151 10.0242 49.3389 9.57586 49.3504 9.12547C49.3449 8.68498 49.4129 8.24666 49.5517 7.82857C49.3815 7.57266 49.156 7.35835 48.8917 7.20157C48.6259 7.06313 48.3329 6.98486 48.0335 6.97231C47.7341 6.95977 47.4356 7.01325 47.1592 7.12897C46.9181 7.23679 46.7082 7.40363 46.5487 7.61407C46.3658 7.86328 46.2304 8.14407 46.1494 8.44237C46.0473 8.83214 45.9995 9.23414 46.0075 9.63697C45.9946 10.2046 46.1073 10.768 46.3375 11.287C46.5432 11.73 46.8414 12.1238 47.212 12.442C47.5926 12.7642 48.0256 13.0187 48.4924 13.1944C48.9924 13.3866 49.508 13.5357 50.0335 13.6399C50.6087 13.7526 51.1764 13.9014 51.733 14.0854C52.143 14.2199 52.5414 14.3877 52.9243 14.587C53.2038 14.7316 53.4653 14.9088 53.7031 15.115C53.8823 15.2735 54.0379 15.4568 54.1651 15.6595C54.1924 15.6965 54.2136 15.7378 54.2278 15.7816C54.2392 15.817 54.247 15.8535 54.2509 15.8905C54.2509 15.9598 54.1783 16.0093 54.0364 16.0291C53.8517 16.0555 53.6652 16.0676 53.4787 16.0654C53.3742 16.0713 53.2696 16.0713 53.1652 16.0654C53.0948 16.0604 53.0251 16.0482 52.9573 16.0291C52.9112 16.0139 52.8678 15.9916 52.8286 15.9631C52.7991 15.9397 52.7735 15.9119 52.7527 15.8806C52.616 15.7105 52.4451 15.5711 52.2511 15.4714C52.0101 15.3379 51.7571 15.2274 51.4954 15.1414C51.2189 15.0485 50.9367 14.9735 50.6506 14.917C50.4016 14.8671 50.1487 14.8395 49.8949 14.8345C49.6606 14.8345 49.4065 14.8345 49.1326 14.851C48.8587 14.8675 48.5716 14.884 48.2746 14.9236C47.9622 14.9614 47.6525 15.0188 47.3473 15.0952C47.0193 15.1807 46.6982 15.291 46.387 15.4252H46.3474C46.2913 15.4252 46.2451 15.3823 46.2088 15.2899C46.1657 15.1614 46.1467 15.026 46.1527 14.8906C46.143 14.7461 46.1632 14.6012 46.2121 14.4649C46.2478 14.3931 46.3073 14.336 46.3804 14.3032C46.6309 14.1983 46.8905 14.1166 47.1559 14.059C47.4351 13.9981 47.7187 13.9595 48.004 13.9435C47.5036 13.83 47.0238 13.6396 46.5817 13.3792C46.1791 13.1395 45.8236 12.8287 45.5323 12.4618C45.2403 12.0931 45.0167 11.6751 44.8723 11.2276C44.7195 10.7407 44.6438 10.233 44.6479 9.72277C44.6451 9.23315 44.705 8.74519 44.8261 8.27077C44.9322 7.83515 45.1253 7.42546 45.3937 7.06627C45.6674 6.71167 46.0229 6.42861 46.4299 6.24127C46.9232 6.02435 47.4588 5.92061 47.9974 5.93767C48.4297 5.9253 48.8589 6.01342 49.2514 6.19507C49.5807 6.35513 49.8747 6.57955 50.116 6.85507C50.3877 6.55276 50.7269 6.31874 51.106 6.17197C51.5411 6.00246 52.0053 5.92059 52.4722 5.93107C52.8914 5.92553 53.3085 5.99023 53.7064 6.12247C54.0593 6.24234 54.3815 6.43837 54.6502 6.69667C54.9188 6.96848 55.124 7.29644 55.2508 7.65697C55.3995 8.09208 55.4688 8.55036 55.4554 9.00997ZM54.1519 9.08587C54.1563 8.78286 54.1128 8.48105 54.0232 8.19157C53.9455 7.95037 53.8223 7.72632 53.6602 7.53157C53.5077 7.35173 53.3174 7.20764 53.103 7.10955C52.8886 7.01146 52.6552 6.96176 52.4194 6.96397C52.1743 6.96031 51.9309 7.00516 51.7033 7.09597C51.4898 7.18246 51.299 7.31681 51.1456 7.48867C50.9778 7.68005 50.8529 7.90508 50.7793 8.14867C50.6845 8.4462 50.6388 8.75716 50.644 9.06937C50.6067 9.62057 50.7593 10.1679 51.0763 10.6204C51.248 10.8097 51.4614 10.9566 51.6997 11.0494C51.9379 11.1422 52.1945 11.1783 52.4491 11.155C52.6745 11.156 52.8982 11.1157 53.1091 11.0362C53.316 10.9557 53.5014 10.828 53.6503 10.6633C53.8152 10.4774 53.9399 10.2594 54.0166 10.0231C54.1158 9.72068 54.1648 9.4041 54.1618 9.08587H54.1519Z" fill="#3B50A3"/>
<path d="M57.7017 11.4583C57.5683 11.4567 57.4349 11.4633 57.3024 11.4781C57.2317 11.484 57.1625 11.5019 57.0978 11.5309C57.045 11.5573 57.0252 11.5771 57.0219 11.587C56.9965 11.6229 56.9755 11.6617 56.9592 11.7025C56.9592 11.7289 56.9196 11.8279 56.8536 12.1051C56.7979 12.3832 56.7724 12.6664 56.7777 12.9499C56.7777 13.3555 56.8458 13.7582 56.979 14.1412C57.1121 14.5175 57.3326 14.8568 57.6225 15.1312C57.9628 15.4457 58.3669 15.6832 58.8072 15.8275C59.3992 16.0202 60.0196 16.1106 60.642 16.0948C61.2151 16.0989 61.7856 16.0177 62.3349 15.8539C62.8187 15.7069 63.2678 15.4633 63.6549 15.1378C64.0332 14.8117 64.3332 14.4045 64.5327 13.9465C64.7596 13.4184 64.8721 12.8482 64.8627 12.2734C64.8779 11.7183 64.793 11.1649 64.6119 10.6399C64.4609 10.2417 64.2482 9.86975 63.9816 9.53772C63.7398 9.24983 63.4626 8.99369 63.1566 8.77542C62.8266 8.55762 62.5527 8.34642 62.292 8.14842C62.0354 7.95169 61.8048 7.72327 61.6056 7.46861C61.4025 7.19422 61.2979 6.8594 61.3086 6.51822V6.07602C61.3086 6.04962 61.3086 6.01331 61.2195 5.97371C61.0113 5.91599 60.7949 5.89368 60.5793 5.90772C60.3504 5.89292 60.1207 5.91634 59.8995 5.97702C59.7939 6.01662 59.7939 6.05622 59.7939 6.07602V6.45222C59.7767 6.92688 59.8623 7.39965 60.0447 7.83822C60.1966 8.17251 60.4092 8.47574 60.6717 8.73252C60.9274 8.98102 61.2083 9.20222 61.5099 9.39252C61.8253 9.5865 62.1234 9.80732 62.4009 10.0525C62.687 10.3116 62.924 10.6201 63.1005 10.9633C63.3045 11.3972 63.4018 11.8735 63.3843 12.3526C63.3882 12.7054 63.3347 13.0565 63.2259 13.3921C63.1235 13.7019 62.9533 13.9849 62.7276 14.2204C62.4942 14.4574 62.2113 14.6399 61.8993 14.755C61.5311 14.8871 61.1419 14.9509 60.7509 14.9431C60.0878 14.9861 59.4312 14.7907 58.8996 14.392C58.676 14.1909 58.5005 13.942 58.3863 13.6637C58.272 13.3855 58.2219 13.0852 58.2396 12.7849C58.2313 12.5028 58.2669 12.2212 58.3452 11.95C58.3907 11.838 58.4207 11.7203 58.4343 11.6002C58.4343 11.5738 58.4046 11.5507 58.3452 11.5276C58.1359 11.4694 57.9185 11.446 57.7017 11.4583Z" fill="#3B50A3"/>
</svg>
