<svg width="80" height="81" viewBox="0 0 80 81" fill="none" xmlns="http://www.w3.org/2000/svg">
<circle cx="40" cy="40.498" r="39.5" fill="#F9F9F7" stroke="#2BB673"/>
<g clip-path="url(#clip0_19_346)">
<path d="M40.4216 24.2162C40.9104 24.2162 41.3067 23.8199 41.3067 23.3311V19.3832C41.3067 18.8943 40.9104 18.498 40.4216 18.498C39.9327 18.498 39.5364 18.8943 39.5364 19.3832V23.3311C39.5365 23.8199 39.9328 24.2162 40.4216 24.2162ZM62.0578 48.9069L60.4942 47.3476C59.9379 46.7921 59.1966 46.486 58.4066 46.486C57.9015 46.486 57.4166 46.6117 56.9869 46.8472L54.0403 43.9041L54.1838 43.7607C55.3792 42.5629 55.3788 40.6166 54.1837 39.4229C53.7631 38.9999 53.2272 38.7101 52.6429 38.5897C52.724 38.3098 52.7651 38.0199 52.765 37.7285C52.765 36.9063 52.4456 36.1353 51.8675 35.5595C51.4468 35.1366 50.9109 34.8468 50.3266 34.7263C50.4077 34.4465 50.4488 34.1566 50.4487 33.8652C50.4487 33.0429 50.1293 32.272 49.5502 31.6954C49.1291 31.2741 48.594 30.9852 48.0107 30.8643C48.3127 29.8231 48.0547 28.6516 47.2355 27.8311C46.5537 27.1521 45.6285 26.8603 44.7368 26.9549L38.8978 25.8497C38.0073 25.6807 36.8952 25.569 36.1932 26.2093C36.1489 26.2497 36.1038 26.2962 36.0593 26.348C34.9708 25.9513 33.7013 26.1875 32.8297 27.0582C32.2515 27.6357 31.933 28.4063 31.933 29.2281C31.933 29.5241 31.9749 29.8132 32.0548 30.0893C31.4716 30.2095 30.9367 30.4986 30.5167 30.9207C29.9373 31.4977 29.6179 32.2674 29.6172 33.0882C29.6169 33.3804 29.658 33.6712 29.7394 33.9519C29.1558 34.0718 28.6203 34.3607 28.1994 34.7824C27.62 35.3612 27.301 36.1322 27.301 36.9536C27.301 37.5827 27.4888 38.182 27.8368 38.6883C27.3927 38.8389 26.9892 39.09 26.6578 39.4219C25.4616 40.6166 25.4612 42.563 26.6586 43.7626L26.8016 43.9049L23.8546 46.8466C22.7594 46.3309 21.41 46.5241 20.5062 47.4267L18.9416 48.987C18.3851 49.5428 18.0787 50.2842 18.0786 51.0746C18.0786 51.8651 18.3851 52.6066 18.9416 53.1625L20.8943 55.1128C21.2401 55.4583 21.8006 55.458 22.146 55.1121C22.4915 54.7663 22.4912 54.2058 22.1453 53.8604L20.1926 51.9101C19.971 51.6887 19.8489 51.392 19.8489 51.0747C19.8489 50.7575 19.971 50.4609 20.1921 50.24L21.7568 48.6797C22.1478 48.2892 22.7461 48.231 23.2005 48.5027C23.291 48.639 23.4176 48.7474 23.5662 48.8158L32.5393 57.7757C32.5827 57.8711 32.6428 57.9581 32.7168 58.0325C32.7891 58.1046 32.8734 58.1636 32.966 58.2069C33.1567 58.4221 33.2616 58.7001 33.2606 58.9878C33.2606 59.305 33.1385 59.6017 32.9168 59.8231L31.3537 61.3844C30.8918 61.8442 30.1405 61.8441 29.6801 61.3858L27.7274 59.4329C27.3817 59.0873 26.8214 59.0873 26.4757 59.4329C26.13 59.7786 26.13 60.339 26.4757 60.6847L28.4298 62.6389C29.0049 63.2117 29.7602 63.498 30.5159 63.498C31.2718 63.498 32.028 63.2113 32.6039 62.6379L34.168 61.0757C34.7245 60.5198 35.031 59.7783 35.031 58.9878C35.031 58.4236 34.8741 57.8848 34.5824 57.4202L37.899 54.1076L37.9096 54.0968C38.2894 53.7042 39.347 53.7777 40.3698 53.8487C41.0965 53.8993 41.9066 53.9554 42.6982 53.8642L46.3302 57.4919C46.0949 57.9209 45.9693 58.4051 45.9693 58.9095C45.9693 59.6992 46.2758 60.4402 46.8323 60.9961L48.3965 62.5583C48.9527 63.1139 49.694 63.4199 50.484 63.4199C51.2738 63.4199 52.0152 63.114 52.5715 62.5583L62.0585 53.0828C62.615 52.527 62.9215 51.7856 62.9215 50.9951C62.9214 50.2047 62.6149 49.4632 62.0578 48.9069ZM38.5682 27.589L42.4079 28.3158L40.1096 30.6132C39.7541 30.4423 39.2668 30.1236 38.7323 29.6123C38.0006 28.9123 37.4772 28.1041 37.4296 27.6001L37.4295 27.5993L37.4294 27.599C37.4265 27.5701 37.4252 27.541 37.4255 27.5118C37.5413 27.4837 37.8487 27.4525 38.5682 27.589ZM34.0807 28.3107C34.5291 27.8627 35.2257 27.811 35.7324 28.1542C36.0196 29.3581 37.0466 30.4492 37.5086 30.8913C37.851 31.219 38.9497 32.2013 40.0587 32.4713C40.2104 32.689 40.2913 32.9481 40.2904 33.2133C40.2904 33.5618 40.1564 33.8876 39.9121 34.1316C39.6686 34.3756 39.3423 34.5099 38.9932 34.5099C38.644 34.5099 38.3176 34.3756 38.0729 34.1304L38.0729 34.1304L38.0724 34.1299L34.0806 30.1453C33.8372 29.9023 33.7032 29.5765 33.7032 29.2281C33.7033 28.8796 33.8373 28.5538 34.0807 28.3107ZM31.7678 32.1732C32.0113 31.9293 32.3373 31.7949 32.6859 31.7949C33.0349 31.7949 33.3619 31.9296 33.607 32.1744L36.8214 35.3824C37.3275 35.8893 37.3275 36.7143 36.8231 37.2195C36.5783 37.4633 36.2508 37.5976 35.9011 37.5976C35.5514 37.5976 35.2239 37.4634 34.9801 37.2205L34.98 37.2204L32.5415 34.7824C32.5377 34.7786 32.5335 34.7751 32.5297 34.7713L31.7668 34.0087C31.522 33.7642 31.3873 33.4378 31.3875 33.0896C31.3879 32.7425 31.5222 32.4177 31.7678 32.1732ZM29.4504 36.035C29.6942 35.7916 30.0208 35.6575 30.3705 35.6575C30.7172 35.6575 31.0411 35.7896 31.2837 36.0288L33.7297 38.4737C33.9736 38.7166 34.108 39.042 34.108 39.3901C34.108 39.738 33.9736 40.0635 33.7288 40.3074C33.4851 40.5507 33.1588 40.6847 32.8098 40.6847C32.4602 40.6847 32.1329 40.5503 31.8889 40.3074L31.0021 39.4217L31.0015 39.4211L29.4505 37.872C29.206 37.6277 29.0714 37.3015 29.0714 36.9534C29.0714 36.6054 29.206 36.2791 29.4504 36.035ZM27.9088 40.6743C28.1536 40.4298 28.4807 40.2952 28.8299 40.2952C29.179 40.2952 29.5061 40.4297 29.7508 40.6741L30.6387 41.561C30.8827 41.8039 31.017 42.1294 31.017 42.4774C31.017 42.8255 30.8826 43.1508 30.6369 43.3957C30.3933 43.6396 30.067 43.774 29.7179 43.774C29.3687 43.774 29.0424 43.6397 28.7971 43.3939L28.6859 43.2832C28.6844 43.2817 28.6832 43.2801 28.6818 43.2787L28.6767 43.2742L27.9097 42.5101C27.4035 42.0029 27.4031 41.1795 27.9088 40.6743ZM45.947 50.7341C45.6015 50.3882 45.041 50.3879 44.6952 50.7333L43.9077 51.5199C43.1594 52.2682 41.8035 52.174 40.4923 52.083C39.0684 51.984 37.596 51.8819 36.6431 52.8601L33.3828 56.1165L25.2298 47.9754L28.1151 45.0953C28.592 45.3877 29.1423 45.5444 29.7181 45.5444C30.5406 45.5444 31.312 45.2255 31.8881 44.6483C32.4681 44.0707 32.7875 43.2998 32.7875 42.4775C32.7875 42.4699 32.787 42.4623 32.787 42.4547C32.7947 42.4547 32.8023 42.4552 32.81 42.4552C33.6314 42.4552 34.4021 42.1373 34.979 41.5611C35.559 40.9835 35.8785 40.2125 35.8785 39.3903C35.8785 39.3826 35.878 39.3751 35.878 39.3674C35.8857 39.3674 35.8934 39.3679 35.9012 39.3679C36.7224 39.3679 37.4936 39.0504 38.0743 38.472C38.6773 37.8681 38.9755 37.073 38.9698 36.2796C38.9777 36.2797 38.9856 36.2802 38.9935 36.2802C39.8161 36.2801 40.5873 35.9613 41.1643 35.3832C41.7425 34.8057 42.0611 34.0351 42.0611 33.2133C42.0611 32.6386 41.9048 32.0892 41.6134 31.6133L44.1423 29.0854C44.324 28.9044 44.5551 28.7812 44.8067 28.7314C44.833 28.7286 44.8591 28.7244 44.8848 28.7193C45.2756 28.6654 45.6859 28.786 45.9848 29.0836C46.4909 29.5906 46.4909 30.4156 45.9866 30.9208L45.2164 31.6878C45.2139 31.6903 45.2112 31.6926 45.2086 31.6952L44.3215 32.5808C43.9756 32.9262 43.9752 33.4867 44.3207 33.8325C44.6663 34.1784 45.2267 34.1787 45.5725 33.8333L46.3457 33.0611L46.3463 33.0606L46.4632 32.9441C46.9707 32.4412 47.793 32.4422 48.3001 32.9486C48.5441 33.1915 48.6784 33.517 48.6784 33.865C48.6784 34.213 48.5441 34.5384 48.2981 34.7833L47.5236 35.5595L47.5233 35.5598L46.6363 36.4432C46.2899 36.7882 46.2888 37.3487 46.6337 37.6949C46.9787 38.0413 47.5391 38.0424 47.8855 37.6975L48.7765 36.8101C49.0201 36.5661 49.3464 36.4318 49.6955 36.4318C50.0447 36.4318 50.3711 36.5661 50.6164 36.8118C50.8604 37.0548 50.9947 37.3803 50.9947 37.7283C50.9947 38.0763 50.8604 38.4018 50.615 38.6461L49.0708 40.1909C48.7252 40.5367 48.7253 41.0971 49.071 41.4427C49.1531 41.525 49.2506 41.5902 49.358 41.6347C49.4654 41.6791 49.5805 41.702 49.6967 41.7018C49.9233 41.7018 50.1499 41.6153 50.3227 41.4424L51.0795 40.6853C51.0838 40.6812 51.0885 40.6776 51.0928 40.6733C51.3363 40.4293 51.6627 40.295 52.0118 40.295C52.361 40.295 52.6873 40.4293 52.9317 40.6742C53.4374 41.1793 53.4369 42.0028 52.9317 42.5089L52.1622 43.2775L52.1614 43.2783L52.1606 43.2792L50.9392 44.499C50.5934 44.8445 50.593 45.405 50.9385 45.7508C51.0206 45.8332 51.1182 45.8986 51.2257 45.9432C51.3332 45.9877 51.4484 46.0106 51.5648 46.0104C51.7911 46.0104 52.0175 45.9241 52.1903 45.7516L52.7877 45.1549L55.6509 48.0148L47.4986 56.1572L44.5776 53.2397C44.7876 53.1051 44.9826 52.9482 45.159 52.7719L45.9461 51.9858C46.2921 51.6405 46.2925 51.08 45.947 50.7341ZM60.8073 51.8303L51.3203 61.3058C51.0984 61.5275 50.8013 61.6495 50.4839 61.6495C50.1664 61.6495 49.8694 61.5275 49.6473 61.3057L48.0832 59.7434C47.8615 59.5221 47.7394 59.2259 47.7394 58.9095C47.7394 58.593 47.8615 58.2969 48.0832 58.0755L57.5702 48.6C57.7922 48.3782 58.0891 48.2561 58.4067 48.2561C58.7242 48.2561 59.0212 48.3782 59.2438 48.6005L60.8074 50.1598C61.0291 50.3812 61.1512 50.6777 61.1512 50.995C61.1511 51.3124 61.029 51.609 60.8073 51.8303ZM28.668 23.47C28.7501 23.5521 28.8476 23.6173 28.9549 23.6616C29.0622 23.706 29.1772 23.7288 29.2933 23.7286C29.52 23.7286 29.7469 23.6419 29.9198 23.4687C30.2651 23.1227 30.2646 22.5623 29.9185 22.217L26.6931 18.998C26.3472 18.6526 25.7867 18.6531 25.4414 18.9992C25.0961 19.3452 25.0966 19.9056 25.4426 20.2509L28.668 23.47ZM51.5498 23.7286C51.7761 23.7286 52.0025 23.6423 52.1753 23.4698L55.3983 20.2507C55.7441 19.9053 55.7445 19.3448 55.399 18.9989C55.0536 18.6531 54.4932 18.6527 54.1473 18.9982L50.9243 22.2173C50.5785 22.5627 50.5781 23.1232 50.9236 23.4691C51.0057 23.5515 51.1033 23.6168 51.2108 23.6614C51.3183 23.7059 51.4335 23.7288 51.5498 23.7286Z" fill="#2BB673"/>
<path d="M23.5213 56.5725C23.1786 56.9211 23.1833 57.4816 23.532 57.8243L23.5345 57.8267C23.6993 57.9893 23.9216 58.0803 24.1531 58.08C24.3822 58.08 24.6114 57.9913 24.785 57.8148C25.1276 57.4662 25.1216 56.9045 24.773 56.5618C24.4245 56.2191 23.8641 56.2239 23.5213 56.5725ZM48.1119 49.4589C48.2466 49.4589 48.3831 49.4282 48.5114 49.3636C48.9478 49.1435 49.1232 48.6112 48.9031 48.1747C48.6829 47.7383 48.1506 47.5628 47.7142 47.783L47.7093 47.7855C47.2728 48.0056 47.0999 48.5367 47.32 48.9731C47.4754 49.2815 47.788 49.4589 48.1119 49.4589Z" fill="#2BB673"/>
</g>
<defs>
<clipPath id="clip0_19_346">
<rect width="45" height="45" fill="white" transform="translate(18 18.498)"/>
</clipPath>
</defs>
</svg>
