<svg width="80" height="81" viewBox="0 0 80 81" fill="none" xmlns="http://www.w3.org/2000/svg">
<circle cx="40" cy="40.4971" r="39.5" stroke="#2BB673"/>
<g clip-path="url(#clip0_19_358)">
<path d="M52.3476 20.0449C50.8856 18.4019 48.8591 17.4971 46.6413 17.4971C44.1658 17.4971 42.0199 18.6676 40.4357 20.882C40.3197 21.0443 40.2083 21.2098 40.1017 21.3784C39.9951 21.2098 39.8837 21.0443 39.7677 20.882C38.1834 18.6676 36.0375 17.4971 33.562 17.4971C31.3442 17.4971 29.3176 18.4019 27.8557 20.0448C26.4684 21.604 25.7043 23.6884 25.7043 25.9141C25.7043 28.3327 26.6429 30.5645 28.6578 32.9379C30.4159 35.0086 32.9376 37.1371 35.8577 39.6017C36.9367 40.5125 38.0526 41.4543 39.2383 42.482C39.4778 42.6899 39.7844 42.8042 40.1016 42.804C40.4187 42.8042 40.7253 42.6898 40.9648 42.482C42.1504 41.4545 43.2661 40.5128 44.3451 39.6021C46.2204 38.0192 47.84 36.6523 49.2454 35.3264C51.9741 32.7519 54.499 29.8298 54.499 25.9142C54.499 23.6884 53.735 21.6041 52.3476 20.0449ZM47.4364 33.4088C46.0841 34.6848 44.4903 36.0299 42.6448 37.5875C41.8239 38.2804 40.9819 38.991 40.1017 39.7458C39.2213 38.9911 38.379 38.2803 37.558 37.5872C31.8101 32.7358 28.3405 29.8074 28.3405 25.9142C28.3403 22.6185 30.585 20.1333 33.5619 20.1333C35.1523 20.1333 36.5048 20.882 37.5819 22.3585C38.4659 23.5701 38.8288 24.8263 38.8313 24.8347C38.9083 25.1125 39.0742 25.3573 39.3036 25.5318C39.533 25.7063 39.8133 25.8008 40.1016 25.8008C40.3898 25.8008 40.6701 25.7063 40.8995 25.5318C41.1289 25.3573 41.2948 25.1125 41.3718 24.8347C41.3849 24.7877 42.7192 20.1333 46.6413 20.1333C49.6181 20.1333 51.8629 22.6186 51.8629 25.9142C51.8629 28.3021 50.6218 30.4033 47.4364 33.4088ZM58.0408 44.0441C56.9474 44.0441 55.8926 44.5032 55.147 45.3035L51.2731 49.4623C50.7723 47.8525 49.2687 46.6803 47.4963 46.6803H41.4073C40.5552 46.6805 39.7323 46.3699 39.0928 45.8069C35.6507 42.7779 30.4769 42.7513 27.0022 45.7232C26.2856 44.7087 25.1049 44.0442 23.7711 44.0442H18.3231C17.5952 44.0442 17.005 44.6343 17.005 45.3623V61.1791C17.005 61.907 17.5951 62.4972 18.3231 62.4972H23.7711C24.9548 62.4972 26.0179 61.9736 26.7432 61.1467L27.5237 61.3661C30.1935 62.1166 32.9537 62.4971 35.727 62.4971H47.4962C50.3848 62.4971 53.1442 61.1174 54.8774 58.8065L61.2054 50.3692L61.2057 50.3687C61.7221 49.6802 61.995 48.8605 61.995 47.9982C61.995 45.8179 60.2211 44.0441 58.0408 44.0441ZM25.0892 58.5428C25.0892 59.2696 24.4979 59.8609 23.7711 59.8609H19.6411V46.6802H23.7711C24.4978 46.6802 25.0892 47.2715 25.0892 47.9983V58.5428ZM59.0966 48.7873L59.0965 48.7875L52.7685 57.2249C51.5305 58.8755 49.5595 59.861 47.4962 59.861H35.7273C33.1951 59.861 30.675 59.5135 28.2373 58.8284L27.7218 58.6834C27.7235 58.6367 27.7254 58.59 27.7254 58.5429V48.5941L28.644 47.7858C31.126 45.6017 34.8694 45.6015 37.3516 47.7858C38.4723 48.7724 39.9143 49.3166 41.4074 49.3162H47.4965C48.2233 49.3162 48.8146 49.9076 48.8146 50.6343C48.8146 51.3611 48.2233 51.9524 47.4965 51.9524H38.1287C37.4008 51.9524 36.8106 52.5425 36.8106 53.2705C36.8106 53.9985 37.4007 54.5886 38.1287 54.5886H48.3797C49.4731 54.5886 50.5277 54.1297 51.2731 53.3296L57.0759 47.1002C57.3283 46.8294 57.671 46.6802 58.0408 46.6802C58.7676 46.6802 59.3589 47.2715 59.3589 47.9983C59.3589 48.2857 59.2682 48.5585 59.0966 48.7873Z" fill="#2BB673"/>
</g>
<defs>
<clipPath id="clip0_19_358">
<rect width="45" height="45" fill="white" transform="translate(17 17.4971)"/>
</clipPath>
</defs>
</svg>
