<svg width="80" height="81" viewBox="0 0 80 81" fill="none" xmlns="http://www.w3.org/2000/svg">
<circle cx="40" cy="40.4961" r="39.5" stroke="#2BB673"/>
<g clip-path="url(#clip0_19_369)">
<path d="M36.6876 52.2459C36.17 52.2459 35.75 51.827 35.75 51.3087C35.75 49.7578 37.0117 48.4962 38.5625 48.4962H47C48.0341 48.4962 48.8748 47.6551 48.8748 46.6209C48.8748 45.5868 48.0341 44.7461 47 44.7461H38.5625C38.4623 44.7461 38.362 44.7293 38.2662 44.6973L35.5982 43.8085H31.0627C29.5211 43.8085 28.0552 44.3918 27.0379 45.4089L26.1003 46.3463C26.0133 46.4335 25.91 46.5026 25.7963 46.5498C25.6826 46.597 25.5607 46.6213 25.4375 46.6213C25.3144 46.6213 25.1925 46.597 25.0787 46.5498C24.965 46.5026 24.8617 46.4335 24.7747 46.3463C24.6876 46.2593 24.6184 46.156 24.5712 46.0423C24.524 45.9286 24.4998 45.8066 24.4998 45.6835C24.4998 45.5604 24.524 45.4385 24.5712 45.3247C24.6184 45.211 24.6876 45.1077 24.7747 45.0207L25.7124 44.0831C27.0781 42.7173 29.0281 41.9336 31.0627 41.9336H35.75C35.8502 41.9336 35.9505 41.9504 36.0463 41.9824L38.7142 42.8712H47C49.0681 42.8712 50.7501 44.5528 50.7501 46.6209C50.7501 48.6891 49.0681 50.371 47 50.371H38.5625C38.0458 50.371 37.6249 50.7909 37.6249 51.3087C37.6249 51.827 37.205 52.2459 36.6876 52.2459Z" fill="#2BB673"/>
<path d="M31.7253 57.5961L30.3998 56.2705L32.2747 54.3957C32.3616 54.3084 32.4649 54.2393 32.5787 54.1921C32.6925 54.145 32.8145 54.1208 32.9376 54.121H45.728L55.6624 45.9929L59.8176 39.3452C59.5982 39.2168 59.3675 39.121 59.1876 39.121C58.3567 39.121 57.7006 39.121 56.1004 40.7212L54.2252 42.5964C54.171 42.6506 54.111 42.6973 54.0453 42.7369L49.3579 45.5493L48.3932 43.9416L52.982 41.1881L54.7756 39.3946C56.7658 37.4044 57.9049 37.2461 59.1876 37.2461C60.4764 37.2461 61.6015 38.3344 61.7254 38.458C61.8752 38.6079 61.9699 38.8042 61.9939 39.0148C62.0179 39.2254 61.9698 39.4379 61.8576 39.6177L57.1699 47.1179C57.1156 47.2046 57.0475 47.2818 56.9683 47.3466L46.656 55.7841C46.4884 55.9209 46.2788 55.9957 46.0624 55.9959H33.3259L31.7253 57.5961Z" fill="#2BB673"/>
<path d="M29.1875 63.4958C29.0644 63.496 28.9424 63.4718 28.8287 63.4247C28.715 63.3776 28.6117 63.3084 28.5248 63.2212C28.4376 63.1342 28.3685 63.0309 28.3213 62.9172C28.2741 62.8034 28.2498 62.6815 28.2498 62.5584C28.2498 62.4353 28.2741 62.3133 28.3213 62.1996C28.3685 62.0859 28.4376 61.9826 28.5248 61.8956L31.612 58.8085L21.6877 48.8841L18.6004 51.9712C18.5135 52.0584 18.4102 52.1276 18.2964 52.1748C18.1827 52.2219 18.0608 52.2462 17.9376 52.2462C17.8145 52.2462 17.6926 52.2219 17.5789 52.1748C17.4651 52.1276 17.3618 52.0584 17.2749 51.9712C17.1877 51.8843 17.1185 51.781 17.0714 51.6672C17.0242 51.5535 16.9999 51.4316 16.9999 51.3085C16.9999 51.1853 17.0242 51.0634 17.0714 50.9497C17.1185 50.8359 17.1877 50.7326 17.2749 50.6457L21.0246 46.8956C21.1117 46.8085 21.215 46.7394 21.3288 46.6923C21.4425 46.6451 21.5644 46.6209 21.6876 46.6209C21.8107 46.6209 21.9326 46.6451 22.0464 46.6923C22.1601 46.7394 22.2635 46.8085 22.3505 46.8956L33.6005 58.1455C33.6876 58.2326 33.7566 58.3359 33.8038 58.4497C33.8509 58.5634 33.8752 58.6853 33.8752 58.8085C33.8752 58.9316 33.8509 59.0535 33.8038 59.1673C33.7566 59.281 33.6876 59.3844 33.6005 59.4714L29.8504 63.2212C29.7634 63.3084 29.6601 63.3775 29.5463 63.4247C29.4325 63.4718 29.3106 63.496 29.1875 63.4958ZM50.749 40.0587C50.5887 40.0587 50.4267 40.0182 50.2784 39.931C49.8303 39.6704 49.6792 39.0957 49.9398 38.6487C51.0828 36.6863 51.6874 34.5807 51.6874 32.5585C51.6874 25.8387 46.22 20.3713 39.5002 20.3713C32.78 20.3713 27.3126 25.8387 27.3126 32.5585C27.3126 34.5807 27.9172 36.6863 29.0601 38.6493C29.3207 39.0967 29.169 39.6704 28.7216 39.9321C28.2736 40.1916 27.7009 40.0419 27.4393 39.5935C26.1306 37.3444 25.4378 34.9116 25.4378 32.5585C25.4378 24.8046 31.7459 18.4961 39.5002 18.4961C47.2541 18.4961 53.5626 24.8046 53.5626 32.5585C53.5626 34.9116 52.8704 37.3444 51.56 39.5928C51.3866 39.8919 51.0714 40.0587 50.749 40.0587Z" fill="#2BB673"/>
<path d="M41.3751 39.1209H37.625C36.0746 39.1209 34.8125 37.8591 34.8125 36.3084C34.8125 35.791 35.2327 35.3708 35.7501 35.3708C36.2675 35.3708 36.6877 35.791 36.6877 36.3084C36.6877 36.8251 37.1086 37.246 37.625 37.246H41.3751C41.8925 37.246 42.3127 36.825 42.3127 36.3084V34.4335C42.3127 33.9168 41.8925 33.4959 41.3751 33.4959H37.625C36.0746 33.4959 34.8125 32.2342 34.8125 30.6834V28.8086C34.8125 27.2578 36.0746 25.9961 37.625 25.9961H41.3751C42.9258 25.9961 44.1876 27.2578 44.1876 28.8086C44.1876 29.326 43.7683 29.7458 43.25 29.7458C42.7316 29.7458 42.3127 29.326 42.3127 28.8086C42.3127 28.2919 41.8925 27.871 41.3751 27.871H37.625C37.1086 27.871 36.6877 28.2919 36.6877 28.8086V30.6834C36.6877 31.2002 37.1086 31.6211 37.625 31.6211H41.3751C42.9258 31.6211 44.1876 32.8827 44.1876 34.4335V36.3084C44.1876 37.8591 42.9258 39.1209 41.3751 39.1209Z" fill="#2BB673"/>
<path d="M39.5002 40.996C38.9825 40.996 38.5626 40.5761 38.5626 40.0587V25.0587C38.5626 24.5413 38.9824 24.1211 39.5002 24.1211C40.0176 24.1211 40.4374 24.5413 40.4374 25.0587V40.0587C40.4374 40.5761 40.0176 40.996 39.5002 40.996ZM47 31.6213H48.8749V33.4962H47V31.6213ZM30.1251 31.6213H32V33.4962H30.1251V31.6213Z" fill="#2BB673"/>
</g>
<defs>
<clipPath id="clip0_19_369">
<rect width="45" height="44.9997" fill="white" transform="translate(17 18.4961)"/>
</clipPath>
</defs>
</svg>
