<svg width="14" height="14" viewBox="0 0 14 14" fill="none" xmlns="http://www.w3.org/2000/svg">
<path d="M2.1 11.2041H5.068C5.16012 11.2046 5.25145 11.1869 5.33673 11.1521C5.42202 11.1173 5.49959 11.0659 5.565 11.0011L10.409 6.15006L12.397 4.20406C12.4626 4.13898 12.5147 4.06156 12.5502 3.97626C12.5858 3.89096 12.6041 3.79947 12.6041 3.70706C12.6041 3.61465 12.5858 3.52316 12.5502 3.43786C12.5147 3.35255 12.4626 3.27513 12.397 3.21006L9.429 0.207059C9.36393 0.141449 9.2865 0.0893729 9.2012 0.0538348C9.1159 0.0182968 9.02441 0 8.932 0C8.83959 0 8.7481 0.0182968 8.6628 0.0538348C8.57749 0.0893729 8.50007 0.141449 8.435 0.207059L6.461 2.18806L1.603 7.03906C1.53812 7.10447 1.4868 7.18204 1.45196 7.26732C1.41712 7.35261 1.39947 7.44393 1.4 7.53606V10.5041C1.4 10.6897 1.47375 10.8678 1.60503 10.999C1.7363 11.1303 1.91435 11.2041 2.1 11.2041ZM8.932 1.69106L10.913 3.67206L9.919 4.66606L7.938 2.68506L8.932 1.69106ZM13.3 12.6041H0.7C0.514348 12.6041 0.336301 12.6778 0.205025 12.8091C0.0737498 12.9404 0 13.1184 0 13.3041C0 13.4897 0.0737498 13.6678 0.205025 13.799C0.336301 13.9303 0.514348 14.0041 0.7 14.0041H13.3C13.4857 14.0041 13.6637 13.9303 13.795 13.799C13.9263 13.6678 14 13.4897 14 13.3041C14 13.1184 13.9263 12.9404 13.795 12.8091C13.6637 12.6778 13.4857 12.6041 13.3 12.6041Z" fill="#E26D5A"/>
</svg>
