<svg width="26" height="26" viewBox="0 0 26 26" fill="none" xmlns="http://www.w3.org/2000/svg">
<g clip-path="url(#clip0_66_271)">
<mask id="mask0_66_271" style="mask-type:luminance" maskUnits="userSpaceOnUse" x="0" y="0" width="26" height="26">
<path d="M25.8002 0.199951H0.200195V25.8H25.8002V0.199951Z" fill="white"/>
</mask>
<g mask="url(#mask0_66_271)">
<path d="M13.0002 25.8C20.0694 25.8 25.8002 20.0692 25.8002 13C25.8002 5.93071 20.0694 0.199951 13.0002 0.199951C5.93095 0.199951 0.200195 5.93071 0.200195 13C0.200195 20.0692 5.93095 25.8 13.0002 25.8Z" fill="white"/>
<path d="M25.6918 11.3304H14.6698V0.308301C14.1232 0.237151 13.566 0.199951 13.0002 0.199951C12.4343 0.199951 11.8771 0.237151 11.3306 0.308301V11.3303L0.308545 11.3304C0.237395 11.8769 0.200195 12.4341 0.200195 13C0.200195 13.5659 0.237395 14.123 0.308545 14.6695H11.3305L11.3306 25.6916C11.8771 25.7628 12.4343 25.8 13.0002 25.8C13.566 25.8 14.1232 25.7628 14.6697 25.6916V14.6696H25.6918C25.763 14.123 25.8002 13.5659 25.8002 13C25.8002 12.4341 25.763 11.8769 25.6918 11.3304Z" fill="#D80027"/>
<path d="M7.99149 6.3217V4.6521H6.32194V6.3217H4.65234V7.99125H6.32194V9.6608H7.99149V7.99125H9.66104V6.3217H7.99149Z" fill="#D80027"/>
<path d="M19.678 6.3217V4.6521H18.0084V6.3217H16.3389V7.99125H18.0084V9.6608H19.678V7.99125H21.3476V6.3217H19.678Z" fill="#D80027"/>
<path d="M7.99149 18.0087V16.3391H6.32194V18.0087H4.65234V19.6782H6.32194V21.3478H7.99149V19.6782H9.66104V18.0087H7.99149Z" fill="#D80027"/>
<path d="M19.678 18.0087V16.3391H18.0084V18.0087H16.3389V19.6782H18.0084V21.3478H19.678V19.6782H21.3476V18.0087H19.678Z" fill="#D80027"/>
</g>
</g>
<defs>
<clipPath id="clip0_66_271">
<rect width="26" height="26" fill="white"/>
</clipPath>
</defs>
</svg>
