<svg width="26" height="26" viewBox="0 0 26 26" fill="none" xmlns="http://www.w3.org/2000/svg">
<g clip-path="url(#clip0_66_274)">
<mask id="mask0_66_274" style="mask-type:luminance" maskUnits="userSpaceOnUse" x="0" y="0" width="26" height="26">
<path d="M25.8002 13C25.8002 5.93071 20.0694 0.199951 13.0002 0.199951C5.93095 0.199951 0.200195 5.93071 0.200195 13C0.200195 20.0692 5.93095 25.8 13.0002 25.8C20.0694 25.8 25.8002 20.0692 25.8002 13Z" fill="white"/>
</mask>
<g mask="url(#mask0_66_274)">
<path d="M25.8002 13C25.8002 5.93071 20.0694 0.199951 13.0002 0.199951C5.93095 0.199951 0.200195 5.93071 0.200195 13C0.200195 20.0692 5.93095 25.8 13.0002 25.8C20.0694 25.8 25.8002 20.0692 25.8002 13Z" fill="#2C61F2"/>
<path d="M24.3207 3.63409L22.4551 1.76847L2.00261 22.221L3.86823 24.0866L24.3207 3.63409Z" fill="#D80027" stroke="white" stroke-width="1.11257"/>
<path d="M2.00255 5.01836L3.86816 3.15274L22.9364 22.221L21.0708 24.0866L2.00255 5.01836Z" fill="#D80027" stroke="white" stroke-width="1.11257"/>
<path d="M26.5595 11.2174L26.4603 10.4554H25.6918H15.5448V0.308301V-0.460174L14.7828 -0.559377C14.1994 -0.635321 13.6044 -0.675049 13.0002 -0.675049C12.3959 -0.675049 11.801 -0.635321 11.2177 -0.559376L10.4556 -0.460165V0.308301V10.4554H0.308545H-0.45993L-0.559133 11.2174C-0.635076 11.8008 -0.674805 12.3956 -0.674805 13C-0.674805 13.6043 -0.635076 14.1991 -0.559132 14.7825L-0.459921 15.5445H0.308545H10.4556V25.6916V26.4601L11.2176 26.5593C11.801 26.6352 12.3959 26.675 13.0002 26.675C13.6044 26.675 14.1994 26.6353 14.7828 26.5593L15.5447 26.46V25.6916V15.5446H25.6918H26.4603L26.5595 14.7825C26.6355 14.1991 26.6752 13.6043 26.6752 13C26.6752 12.3956 26.6355 11.8008 26.5595 11.2174Z" fill="#D80027" stroke="white" stroke-width="1.75"/>
</g>
</g>
<defs>
<clipPath id="clip0_66_274">
<rect width="26" height="26" fill="white"/>
</clipPath>
</defs>
</svg>
