<svg width="14" height="14" viewBox="0 0 14 14" fill="none" xmlns="http://www.w3.org/2000/svg">
<path d="M13.125 3.62354C13.125 5.17627 11.8652 6.43604 10.3125 6.43604C9.55078 6.43604 8.84766 6.14307 8.34961 5.67432L5.5957 7.05127C5.5957 7.13916 5.5957 7.25635 5.5957 7.37354C5.5957 7.49072 5.5957 7.60791 5.5957 7.7251L8.34961 9.10205C8.84766 8.6333 9.55078 8.31104 10.3125 8.31104C11.8652 8.31104 13.125 9.5708 13.125 11.1235C13.125 12.6763 11.8652 13.936 10.3125 13.936C8.73047 13.936 7.5 12.6763 7.5 11.1235C7.5 11.0063 7.5 10.8892 7.5 10.8013L4.74609 9.42432C4.24805 9.89307 3.54492 10.186 2.8125 10.186C1.23047 10.186 0 8.92627 0 7.37354C0 5.8208 1.23047 4.56104 2.8125 4.56104C3.54492 4.56104 4.24805 4.8833 4.74609 5.35205L7.5 3.9751C7.5 3.85791 7.5 3.74072 7.5 3.62354C7.5 2.0708 8.73047 0.811035 10.3125 0.811035C11.8652 0.811035 13.125 2.0708 13.125 3.62354ZM2.7832 8.31104C3.31055 8.31104 3.7207 7.90088 3.7207 7.37354C3.7207 6.87549 3.31055 6.43604 2.7832 6.43604C2.28516 6.43604 1.8457 6.87549 1.8457 7.37354C1.8457 7.90088 2.28516 8.31104 2.7832 8.31104ZM10.3125 2.68604C9.78516 2.68604 9.375 3.12549 9.375 3.62354C9.375 4.15088 9.78516 4.56104 10.3125 4.56104C10.8105 4.56104 11.25 4.15088 11.25 3.62354C11.25 3.12549 10.8105 2.68604 10.3125 2.68604ZM10.3125 12.061C10.8105 12.061 11.25 11.6509 11.25 11.1235C11.25 10.6255 10.8105 10.186 10.3125 10.186C9.78516 10.186 9.375 10.6255 9.375 11.1235C9.375 11.6509 9.78516 12.061 10.3125 12.061Z" fill="#2BB673"/>
</svg>
