<svg width="24" height="17" viewBox="0 0 24 17" fill="none" xmlns="http://www.w3.org/2000/svg">
<path d="M2.12543 0.25H10.3754C10.813 0.25 11.2327 0.423839 11.5422 0.733274C11.8516 1.04271 12.0254 1.46239 12.0254 1.9C12.0254 2.33761 11.8516 2.75729 11.5422 3.06673C11.2327 3.37616 10.813 3.55 10.3754 3.55H2.12543C1.68783 3.55 1.26814 3.37616 0.958707 3.06673C0.649272 2.75729 0.475433 2.33761 0.475433 1.9C0.475433 1.46239 0.649272 1.04271 0.958707 0.733274C1.26814 0.423839 1.68783 0.25 2.12543 0.25ZM13.6754 13.45H21.9254C22.363 13.45 22.7827 13.6238 23.0922 13.9333C23.4016 14.2427 23.5754 14.6624 23.5754 15.1C23.5754 15.5376 23.4016 15.9573 23.0922 16.2667C22.7827 16.5762 22.363 16.75 21.9254 16.75H13.6754C13.2378 16.75 12.8181 16.5762 12.5087 16.2667C12.1993 15.9573 12.0254 15.5376 12.0254 15.1C12.0254 14.6624 12.1993 14.2427 12.5087 13.9333C12.8181 13.6238 13.2378 13.45 13.6754 13.45ZM2.12543 6.85H21.9254C22.363 6.85 22.7827 7.02384 23.0922 7.33327C23.4016 7.64271 23.5754 8.06239 23.5754 8.5C23.5754 8.93761 23.4016 9.35729 23.0922 9.66673C22.7827 9.97616 22.363 10.15 21.9254 10.15H2.12543C1.68783 10.15 1.26814 9.97616 0.958707 9.66673C0.649272 9.35729 0.475433 8.93761 0.475433 8.5C0.475433 8.06239 0.649272 7.64271 0.958707 7.33327C1.26814 7.02384 1.68783 6.85 2.12543 6.85Z" fill="#343434"/>
</svg>
