<svg width="20" height="20" viewBox="0 0 20 20" fill="none" xmlns="http://www.w3.org/2000/svg">
<path d="M14.3983 10.2217C14.3692 10.2919 14.3267 10.3557 14.2732 10.4095L10.4095 14.2731C10.2997 14.3755 10.1543 14.4313 10.0042 14.4286C9.85406 14.426 9.71081 14.3651 9.60463 14.2589C9.49845 14.1528 9.43762 14.0095 9.43497 13.8594C9.43232 13.7092 9.48806 13.5639 9.59043 13.4541L12.4642 10.5795H3.04543C2.89172 10.5795 2.74431 10.5185 2.63563 10.4098C2.52694 10.3011 2.46588 10.1537 2.46588 9.99997C2.46588 9.84626 2.52694 9.69885 2.63563 9.59017C2.74431 9.48148 2.89172 9.42042 3.04543 9.42042H12.4642L9.59043 6.54588C9.48806 6.43601 9.43232 6.2907 9.43497 6.14056C9.43762 5.99042 9.49845 5.84717 9.60463 5.74099C9.71081 5.6348 9.85406 5.57398 10.0042 5.57133C10.1543 5.56868 10.2997 5.62441 10.4095 5.72678L14.2732 9.59042C14.354 9.67156 14.409 9.77479 14.4313 9.88714C14.4536 9.99948 14.4421 10.1159 14.3983 10.2217ZM16.9545 4.78406C16.8008 4.78406 16.6534 4.84512 16.5447 4.9538C16.436 5.06249 16.375 5.2099 16.375 5.3636V14.6363C16.375 14.79 16.436 14.9374 16.5447 15.0461C16.6534 15.1548 16.8008 15.2159 16.9545 15.2159C17.1082 15.2159 17.2556 15.1548 17.3643 15.0461C17.473 14.9374 17.5341 14.79 17.5341 14.6363V5.3636C17.5341 5.2099 17.473 5.06249 17.3643 4.9538C17.2556 4.84512 17.1082 4.78406 16.9545 4.78406Z" fill="white"/>
</svg>
